<svg width="392" height="673" viewBox="0 0 392 673" fill="none" xmlns="http://www.w3.org/2000/svg">
<mask id="mask0_1615_20217" style="mask-type:alpha" maskUnits="userSpaceOnUse" x="0" y="0" width="392" height="673">
<rect width="392" height="673" fill="#C4C4C4"/>
</mask>
<g mask="url(#mask0_1615_20217)">
<path d="M54.1152 223.906C55.3233 223.906 56.3027 222.926 56.3027 221.718C56.3027 220.51 55.3233 219.531 54.1152 219.531C52.9071 219.531 51.9277 220.51 51.9277 221.718C51.9277 222.926 52.9071 223.906 54.1152 223.906ZM79.6891 220.684C79.6891 217.462 77.7999 215.454 75.1948 215.454C72.5897 215.454 70.7005 217.462 70.7005 220.684C70.7005 223.906 72.5897 225.914 75.1948 225.914C77.7999 225.914 79.6891 223.906 79.6891 220.684ZM78.4959 220.684C78.4959 223.329 77.0442 224.761 75.1948 224.761C73.3453 224.761 71.8936 223.329 71.8936 220.684C71.8936 218.039 73.3453 216.607 75.1948 216.607C77.0442 216.607 78.4959 218.039 78.4959 220.684ZM81.6032 225.775H82.7765V220.943C82.7765 219.908 83.5918 219.153 84.7054 219.153C85.0186 219.153 85.3418 219.212 85.4213 219.232V218.039C85.2871 218.029 84.9789 218.019 84.8049 218.019C83.8901 218.019 83.0946 218.536 82.8162 219.292H82.7367V218.139H81.6032V225.775ZM89.6621 228.798C91.4917 228.798 92.9632 227.962 92.9632 225.994V218.139H91.8297V219.352H91.7104C91.4519 218.954 90.9746 218.039 89.4831 218.039C87.5542 218.039 86.2218 219.57 86.2218 221.917C86.2218 224.303 87.6138 225.656 89.4632 225.656C90.9547 225.656 91.432 224.781 91.6905 224.363H91.79V225.914C91.79 227.187 90.8951 227.764 89.6621 227.764C88.275 227.764 87.7878 227.033 87.4746 226.61L86.54 227.266C87.0172 228.067 87.9569 228.798 89.6621 228.798ZM89.6223 224.602C88.1507 224.602 87.3951 223.488 87.3951 221.897C87.3951 220.346 88.1309 219.093 89.6223 219.093C91.0542 219.093 91.8098 220.246 91.8098 221.897C91.8098 223.587 91.0343 224.602 89.6223 224.602ZM97.3581 225.954C98.6905 225.954 99.3865 225.238 99.6252 224.741H99.6848V225.775H100.858V220.744C100.858 218.318 99.0087 218.039 98.0343 218.039C96.8809 218.039 95.5684 218.437 94.9718 219.829L96.0854 220.227C96.3439 219.67 96.9554 219.073 98.074 219.073C99.1529 219.073 99.6848 219.645 99.6848 220.624V220.664C99.6848 221.231 99.1081 221.181 97.7161 221.36C96.2992 221.544 94.753 221.857 94.753 223.607C94.753 225.099 95.9064 225.954 97.3581 225.954ZM97.5371 224.9C96.6025 224.9 95.9263 224.482 95.9263 223.667C95.9263 222.772 96.7417 222.494 97.6564 222.374C98.1536 222.315 99.486 222.175 99.6848 221.937V223.011C99.6848 223.965 98.9292 224.9 97.5371 224.9ZM104.173 221.181C104.173 219.849 104.998 219.093 106.122 219.093C107.211 219.093 107.872 219.804 107.872 221.002V225.775H109.045V220.923C109.045 218.974 108.006 218.039 106.46 218.039C105.306 218.039 104.591 218.556 104.233 219.332H104.133V218.139H103V225.775H104.173V221.181ZM111.189 225.775H112.362V218.139H111.189V225.775ZM111.786 216.866C112.243 216.866 112.621 216.508 112.621 216.07C112.621 215.633 112.243 215.275 111.786 215.275C111.328 215.275 110.95 215.633 110.95 216.07C110.95 216.508 111.328 216.866 111.786 216.866ZM114.293 225.775H120.278V224.681H115.923V224.602L120.139 219.073V218.139H114.432V219.232H118.628V219.312L114.293 224.88V225.775ZM125.069 225.934C126.62 225.934 127.753 225.158 128.111 224.005L126.978 223.687C126.679 224.482 125.988 224.88 125.069 224.88C123.691 224.88 122.742 223.99 122.687 222.354H128.23V221.857C128.23 219.014 126.54 218.039 124.949 218.039C122.881 218.039 121.509 219.67 121.509 222.016C121.509 224.363 122.861 225.934 125.069 225.934ZM122.687 221.34C122.767 220.152 123.607 219.093 124.949 219.093C126.222 219.093 127.037 220.048 127.037 221.34H122.687ZM136.2 225.954C137.532 225.954 138.228 225.238 138.467 224.741H138.527V225.775H139.7V220.744C139.7 218.318 137.85 218.039 136.876 218.039C135.723 218.039 134.41 218.437 133.814 219.829L134.927 220.227C135.186 219.67 135.797 219.073 136.916 219.073C137.995 219.073 138.527 219.645 138.527 220.624V220.664C138.527 221.231 137.95 221.181 136.558 221.36C135.141 221.544 133.595 221.857 133.595 223.607C133.595 225.099 134.748 225.954 136.2 225.954ZM136.379 224.9C135.444 224.9 134.768 224.482 134.768 223.667C134.768 222.772 135.583 222.494 136.498 222.374C136.995 222.315 138.328 222.175 138.527 221.937V223.011C138.527 223.965 137.771 224.9 136.379 224.9ZM143.015 215.593H141.841V225.775H143.015V215.593ZM146.337 215.593H145.164V225.775H146.337V215.593ZM153.179 228.639C154.238 228.639 154.984 228.077 155.426 226.889L158.668 218.139H157.395L155.287 224.224H155.208L153.1 218.139H151.827L154.651 225.815L154.432 226.411C154.004 227.575 153.477 227.684 152.622 227.465L152.324 228.499C152.443 228.559 152.781 228.639 153.179 228.639ZM163.045 225.934C165.113 225.934 166.506 224.363 166.506 221.996C166.506 219.61 165.113 218.039 163.045 218.039C160.977 218.039 159.585 219.61 159.585 221.996C159.585 224.363 160.977 225.934 163.045 225.934ZM163.045 224.88C161.474 224.88 160.758 223.528 160.758 221.996C160.758 220.465 161.474 219.093 163.045 219.093C164.616 219.093 165.332 220.465 165.332 221.996C165.332 223.528 164.616 224.88 163.045 224.88ZM173.109 222.653C173.109 224.085 172.015 224.741 171.14 224.741C170.166 224.741 169.47 224.025 169.47 222.911V218.139H168.297V222.991C168.297 224.94 169.331 225.874 170.762 225.874C171.916 225.874 172.672 225.258 173.029 224.482H173.109V225.775H174.282V218.139H173.109V222.653ZM176.431 225.775H177.605V220.943C177.605 219.908 178.42 219.153 179.534 219.153C179.847 219.153 180.17 219.212 180.249 219.232V218.039C180.115 218.029 179.807 218.019 179.633 218.019C178.718 218.019 177.923 218.536 177.644 219.292H177.565V218.139H176.431V225.775ZM186.154 225.775L187.179 222.891H191.295L192.319 225.775H193.612L189.873 215.593H188.6L184.862 225.775H186.154ZM187.566 221.798L189.197 217.204H189.277L190.907 221.798H187.566ZM195.198 225.775H196.431V222.056H198.658C201.029 222.056 202.098 220.614 202.098 218.815C202.098 217.015 201.029 215.593 198.638 215.593H195.198V225.775ZM196.431 220.962V216.687H198.598C200.254 216.687 200.885 217.592 200.885 218.815C200.885 220.038 200.254 220.962 198.618 220.962H196.431ZM205.317 215.593H204.085V225.775H205.317V215.593ZM214.452 225.934C215.923 225.934 216.42 225.019 216.679 224.602H216.818V225.775H217.952V215.593H216.778V219.352H216.679C216.42 218.954 215.963 218.039 214.471 218.039C212.542 218.039 211.21 219.57 211.21 221.977C211.21 224.403 212.542 225.934 214.452 225.934ZM214.611 224.88C213.139 224.88 212.383 223.587 212.383 221.957C212.383 220.346 213.119 219.093 214.611 219.093C216.042 219.093 216.798 220.246 216.798 221.957C216.798 223.687 216.023 224.88 214.611 224.88ZM223.465 225.934C225.016 225.934 226.15 225.158 226.508 224.005L225.374 223.687C225.076 224.482 224.385 224.88 223.465 224.88C222.088 224.88 221.138 223.99 221.084 222.354H226.627V221.857C226.627 219.014 224.937 218.039 223.346 218.039C221.278 218.039 219.905 219.67 219.905 222.016C219.905 224.363 221.258 225.934 223.465 225.934ZM221.084 221.34C221.163 220.152 222.003 219.093 223.346 219.093C224.618 219.093 225.434 220.048 225.434 221.34H221.084ZM234.424 218.139H233.151L231.043 224.224H230.963L228.855 218.139H227.583L230.407 225.775H231.6L234.424 218.139ZM238.901 225.934C240.452 225.934 241.585 225.158 241.943 224.005L240.81 223.687C240.511 224.482 239.82 224.88 238.901 224.88C237.523 224.88 236.574 223.99 236.519 222.354H242.062V221.857C242.062 219.014 240.372 218.039 238.781 218.039C236.713 218.039 235.341 219.67 235.341 222.016C235.341 224.363 236.693 225.934 238.901 225.934ZM236.519 221.34C236.599 220.152 237.439 219.093 238.781 219.093C240.054 219.093 240.869 220.048 240.869 221.34H236.519ZM245.021 215.593H243.847V225.775H245.021V215.593ZM250.272 225.934C252.34 225.934 253.732 224.363 253.732 221.996C253.732 219.61 252.34 218.039 250.272 218.039C248.204 218.039 246.812 219.61 246.812 221.996C246.812 224.363 248.204 225.934 250.272 225.934ZM250.272 224.88C248.701 224.88 247.985 223.528 247.985 221.996C247.985 220.465 248.701 219.093 250.272 219.093C251.843 219.093 252.559 220.465 252.559 221.996C252.559 223.528 251.843 224.88 250.272 224.88ZM255.523 228.639H256.696V224.602H256.796C257.054 225.019 257.551 225.934 259.023 225.934C260.932 225.934 262.265 224.403 262.265 221.977C262.265 219.57 260.932 218.039 259.003 218.039C257.512 218.039 257.054 218.954 256.796 219.352H256.657V218.139H255.523V228.639ZM256.676 221.957C256.676 220.246 257.432 219.093 258.864 219.093C260.355 219.093 261.091 220.346 261.091 221.957C261.091 223.587 260.336 224.88 258.864 224.88C257.452 224.88 256.676 223.687 256.676 221.957ZM264.054 225.775H265.228V221.002C265.228 219.884 266.043 219.093 266.958 219.093C267.848 219.093 268.469 219.675 268.469 220.545V225.775H269.662V220.803C269.662 219.819 270.279 219.093 271.353 219.093C272.188 219.093 272.904 219.536 272.904 220.664V225.775H274.077V220.664C274.077 218.869 273.113 218.039 271.75 218.039C270.657 218.039 269.856 218.541 269.463 219.332H269.384C269.006 218.516 268.34 218.039 267.336 218.039C266.341 218.039 265.605 218.516 265.287 219.332H265.188V218.139H264.054V225.775ZM279.424 225.934C280.975 225.934 282.109 225.158 282.467 224.005L281.333 223.687C281.035 224.482 280.344 224.88 279.424 224.88C278.047 224.88 277.097 223.99 277.043 222.354H282.586V221.857C282.586 219.014 280.896 218.039 279.305 218.039C277.237 218.039 275.864 219.67 275.864 222.016C275.864 224.363 277.217 225.934 279.424 225.934ZM277.043 221.34C277.122 220.152 277.962 219.093 279.305 219.093C280.577 219.093 281.393 220.048 281.393 221.34H277.043ZM285.544 221.181C285.544 219.849 286.369 219.093 287.493 219.093C288.582 219.093 289.243 219.804 289.243 221.002V225.775H290.416V220.923C290.416 218.974 289.377 218.039 287.831 218.039C286.678 218.039 285.962 218.556 285.604 219.332H285.504V218.139H284.371V225.775H285.544V221.181ZM295.881 218.139H294.251V216.309H293.077V218.139H291.924V219.133H293.077V223.906C293.077 225.238 294.151 225.874 295.145 225.874C295.583 225.874 295.861 225.795 296.02 225.735L295.782 224.681C295.682 224.701 295.523 224.741 295.265 224.741C294.748 224.741 294.251 224.582 294.251 223.587V219.133H295.881V218.139ZM72.6692 247.775H73.8226L75.4931 241.908H75.6124L77.2828 247.775H78.4363L80.763 240.139H79.53L77.8794 245.965H77.7999L76.1891 240.139H74.9363L73.3056 245.985H73.226L71.5755 240.139H70.3425L72.6692 247.775ZM82.3141 247.775H83.4874V240.139H82.3141V247.775ZM82.9107 238.866C83.3681 238.866 83.7459 238.508 83.7459 238.07C83.7459 237.633 83.3681 237.275 82.9107 237.275C82.4533 237.275 82.0755 237.633 82.0755 238.07C82.0755 238.508 82.4533 238.866 82.9107 238.866ZM88.9574 240.139H87.3267V238.309H86.1534V240.139H85V241.133H86.1534V245.906C86.1534 247.238 87.2273 247.874 88.2216 247.874C88.6591 247.874 88.9375 247.795 89.0966 247.735L88.858 246.681C88.7585 246.701 88.5994 246.741 88.3409 246.741C87.8239 246.741 87.3267 246.582 87.3267 245.587V241.133H88.9574V240.139ZM92.0597 243.181C92.0597 241.849 92.9098 241.093 94.0682 241.093C95.1719 241.093 95.8381 241.789 95.8381 243.002V247.775H97.0114V242.923C97.0114 240.959 95.9673 240.039 94.4062 240.039C93.2031 240.039 92.517 240.541 92.1591 241.332H92.0597V237.593H90.8864V247.775H92.0597V243.181ZM99.1578 247.775H100.331V240.139H99.1578V247.775ZM99.7544 238.866C100.212 238.866 100.59 238.508 100.59 238.07C100.59 237.633 100.212 237.275 99.7544 237.275C99.2971 237.275 98.9192 237.633 98.9192 238.07C98.9192 238.508 99.2971 238.866 99.7544 238.866ZM103.653 243.181C103.653 241.849 104.479 241.093 105.602 241.093C106.691 241.093 107.352 241.804 107.352 243.002V247.775H108.526V242.923C108.526 240.974 107.487 240.039 105.94 240.039C104.787 240.039 104.071 240.556 103.713 241.332H103.614V240.139H102.48V247.775H103.653V243.181ZM114.766 247.775H115.999V244.056H118.226C120.598 244.056 121.667 242.614 121.667 240.815C121.667 239.015 120.598 237.593 118.206 237.593H114.766V247.775ZM115.999 242.962V238.687H118.167C119.822 238.687 120.454 239.592 120.454 240.815C120.454 242.038 119.822 242.962 118.187 242.962H115.999ZM126.514 247.934C128.582 247.934 129.974 246.363 129.974 243.996C129.974 241.61 128.582 240.039 126.514 240.039C124.446 240.039 123.054 241.61 123.054 243.996C123.054 246.363 124.446 247.934 126.514 247.934ZM126.514 246.88C124.943 246.88 124.227 245.528 124.227 243.996C124.227 242.465 124.943 241.093 126.514 241.093C128.085 241.093 128.801 242.465 128.801 243.996C128.801 245.528 128.085 246.88 126.514 246.88ZM137.174 241.849C136.806 240.765 135.981 240.039 134.47 240.039C132.859 240.039 131.666 240.954 131.666 242.246C131.666 243.3 132.292 244.006 133.694 244.335L134.967 244.633C135.738 244.812 136.1 245.18 136.1 245.707C136.1 246.363 135.404 246.9 134.311 246.9C133.351 246.9 132.75 246.487 132.541 245.667L131.427 245.945C131.701 247.243 132.77 247.934 134.331 247.934C136.105 247.934 137.314 246.965 137.314 245.647C137.314 244.583 136.647 243.912 135.285 243.579L134.152 243.3C133.247 243.077 132.839 242.773 132.839 242.187C132.839 241.531 133.535 241.053 134.47 241.053C135.494 241.053 135.917 241.62 136.12 242.147L137.174 241.849ZM142.401 240.139H140.77V238.309H139.597V240.139H138.443V241.133H139.597V245.906C139.597 247.238 140.671 247.874 141.665 247.874C142.102 247.874 142.381 247.795 142.54 247.735L142.301 246.681C142.202 246.701 142.043 246.741 141.784 246.741C141.267 246.741 140.77 246.582 140.77 245.587V241.133H142.401V240.139ZM144.166 247.775H145.339V243.002C145.339 241.884 146.154 241.093 147.069 241.093C147.959 241.093 148.58 241.675 148.58 242.545V247.775H149.774V242.803C149.774 241.819 150.39 241.093 151.464 241.093C152.299 241.093 153.015 241.536 153.015 242.664V247.775H154.188V242.664C154.188 240.869 153.224 240.039 151.862 240.039C150.768 240.039 149.968 240.541 149.575 241.332H149.495C149.117 240.516 148.451 240.039 147.447 240.039C146.453 240.039 145.717 240.516 145.399 241.332H145.299V240.139H144.166V247.775ZM158.581 247.954C159.913 247.954 160.609 247.238 160.848 246.741H160.907V247.775H162.081V242.744C162.081 240.318 160.231 240.039 159.257 240.039C158.104 240.039 156.791 240.437 156.194 241.829L157.308 242.227C157.567 241.67 158.178 241.073 159.297 241.073C160.376 241.073 160.907 241.645 160.907 242.624V242.664C160.907 243.231 160.331 243.181 158.939 243.36C157.522 243.544 155.976 243.857 155.976 245.607C155.976 247.099 157.129 247.954 158.581 247.954ZM158.76 246.9C157.825 246.9 157.149 246.482 157.149 245.667C157.149 244.772 157.964 244.494 158.879 244.374C159.376 244.315 160.709 244.175 160.907 243.937V245.011C160.907 245.965 160.152 246.9 158.76 246.9ZM165.396 243.181C165.396 241.849 166.221 241.093 167.344 241.093C168.433 241.093 169.094 241.804 169.094 243.002V247.775H170.268V242.923C170.268 240.974 169.229 240.039 167.683 240.039C166.529 240.039 165.813 240.556 165.455 241.332H165.356V240.139H164.222V247.775H165.396V243.181ZM178.358 247.775H179.631L181.878 239.661H181.957L184.204 247.775H185.477L188.261 237.593H187.008L184.881 245.886H184.781L182.613 237.593H181.221L179.054 245.886H178.954L176.827 237.593H175.574L178.358 247.775ZM192.03 247.934C194.098 247.934 195.49 246.363 195.49 243.996C195.49 241.61 194.098 240.039 192.03 240.039C189.961 240.039 188.569 241.61 188.569 243.996C188.569 246.363 189.961 247.934 192.03 247.934ZM192.03 246.88C190.459 246.88 189.743 245.528 189.743 243.996C189.743 242.465 190.459 241.093 192.03 241.093C193.601 241.093 194.317 242.465 194.317 243.996C194.317 245.528 193.601 246.88 192.03 246.88ZM197.281 247.775H198.454V242.943C198.454 241.908 199.27 241.153 200.383 241.153C200.696 241.153 201.02 241.212 201.099 241.232V240.039C200.965 240.029 200.657 240.019 200.483 240.019C199.568 240.019 198.772 240.536 198.494 241.292H198.414V240.139H197.281V247.775ZM202.49 247.775H203.663V244.916L204.483 244.156L207.342 247.775H208.834L205.368 243.4L208.595 240.139H207.143L203.802 243.539H203.663V237.593H202.49V247.775ZM215.514 241.849C215.146 240.765 214.321 240.039 212.81 240.039C211.199 240.039 210.006 240.954 210.006 242.246C210.006 243.3 210.632 244.006 212.034 244.335L213.307 244.633C214.077 244.812 214.44 245.18 214.44 245.707C214.44 246.363 213.744 246.9 212.651 246.9C211.691 246.9 211.089 246.487 210.881 245.667L209.767 245.945C210.04 247.243 211.109 247.934 212.67 247.934C214.445 247.934 215.653 246.965 215.653 245.647C215.653 244.583 214.987 243.912 213.625 243.579L212.491 243.3C211.587 243.077 211.179 242.773 211.179 242.187C211.179 241.531 211.875 241.053 212.81 241.053C213.834 241.053 214.256 241.62 214.46 242.147L215.514 241.849ZM217.42 250.639H218.593V246.602H218.692C218.951 247.019 219.448 247.934 220.92 247.934C222.829 247.934 224.161 246.403 224.161 243.977C224.161 241.57 222.829 240.039 220.9 240.039C219.408 240.039 218.951 240.954 218.692 241.352H218.553V240.139H217.42V250.639ZM218.573 243.957C218.573 242.246 219.329 241.093 220.76 241.093C222.252 241.093 222.988 242.346 222.988 243.957C222.988 245.587 222.232 246.88 220.76 246.88C219.349 246.88 218.573 245.687 218.573 243.957ZM228.198 247.954C229.53 247.954 230.226 247.238 230.465 246.741H230.525V247.775H231.698V242.744C231.698 240.318 229.849 240.039 228.874 240.039C227.721 240.039 226.408 240.437 225.812 241.829L226.925 242.227C227.184 241.67 227.795 241.073 228.914 241.073C229.993 241.073 230.525 241.645 230.525 242.624V242.664C230.525 243.231 229.948 243.181 228.556 243.36C227.139 243.544 225.593 243.857 225.593 245.607C225.593 247.099 226.746 247.954 228.198 247.954ZM228.377 246.9C227.442 246.9 226.766 246.482 226.766 245.667C226.766 244.772 227.581 244.494 228.496 244.374C228.993 244.315 230.326 244.175 230.525 243.937V245.011C230.525 245.965 229.769 246.9 228.377 246.9ZM236.942 247.934C238.632 247.934 239.746 246.9 239.945 245.548H238.771C238.553 246.383 237.857 246.88 236.942 246.88C235.55 246.88 234.655 245.727 234.655 243.957C234.655 242.227 235.57 241.093 236.942 241.093C237.976 241.093 238.592 241.729 238.771 242.425H239.945C239.746 240.994 238.533 240.039 236.922 240.039C234.854 240.039 233.482 241.67 233.482 243.996C233.482 246.283 234.794 247.934 236.942 247.934ZM244.862 247.934C246.413 247.934 247.546 247.158 247.904 246.005L246.771 245.687C246.472 246.482 245.781 246.88 244.862 246.88C243.484 246.88 242.535 245.99 242.48 244.354H248.023V243.857C248.023 241.014 246.333 240.039 244.742 240.039C242.674 240.039 241.302 241.67 241.302 244.016C241.302 246.363 242.654 247.934 244.862 247.934ZM242.48 243.34C242.56 242.152 243.4 241.093 244.742 241.093C246.015 241.093 246.83 242.048 246.83 243.34H242.48ZM255.217 241.849C254.849 240.765 254.024 240.039 252.513 240.039C250.902 240.039 249.709 240.954 249.709 242.246C249.709 243.3 250.335 244.006 251.737 244.335L253.01 244.633C253.781 244.812 254.143 245.18 254.143 245.707C254.143 246.363 253.447 246.9 252.354 246.9C251.394 246.9 250.793 246.487 250.584 245.667L249.47 245.945C249.744 247.243 250.812 247.934 252.374 247.934C254.148 247.934 255.357 246.965 255.357 245.647C255.357 244.583 254.69 243.912 253.328 243.579L252.195 243.3C251.29 243.077 250.882 242.773 250.882 242.187C250.882 241.531 251.578 241.053 252.513 241.053C253.537 241.053 253.96 241.62 254.163 242.147L255.217 241.849ZM54.1152 267.906C55.3233 267.906 56.3027 266.926 56.3027 265.718C56.3027 264.51 55.3233 263.531 54.1152 263.531C52.9071 263.531 51.9277 264.51 51.9277 265.718C51.9277 266.926 52.9071 267.906 54.1152 267.906ZM76.6664 262.139H77.8596C77.8049 260.602 76.388 259.454 74.4192 259.454C72.4703 259.454 70.9391 260.587 70.9391 262.298C70.9391 263.67 71.9334 264.485 73.5243 264.943L74.7772 265.3C75.851 265.599 76.8056 265.977 76.8056 266.991C76.8056 268.104 75.7317 268.84 74.3198 268.84C73.1067 268.84 72.0328 268.303 71.9334 267.15H70.6607C70.78 268.82 72.1323 269.954 74.3198 269.954C76.6664 269.954 77.9988 268.661 77.9988 267.011C77.9988 265.102 76.1891 264.485 75.1351 264.207L74.101 263.928C73.3453 263.729 72.1323 263.332 72.1323 262.238C72.1323 261.264 73.0272 260.548 74.3794 260.548C75.6124 260.548 76.5471 261.134 76.6664 262.139ZM80.6225 272.639C81.6815 272.639 82.4272 272.077 82.8697 270.889L86.1112 262.139H84.8384L82.7305 268.224H82.6509L80.543 262.139H79.2702L82.0941 269.815L81.8754 270.411C81.4478 271.575 80.9208 271.684 80.0657 271.465L79.7674 272.499C79.8867 272.559 80.2248 272.639 80.6225 272.639ZM88.8331 265.181C88.8331 263.849 89.6584 263.093 90.782 263.093C91.8707 263.093 92.532 263.804 92.532 265.002V269.775H93.7053V264.923C93.7053 262.974 92.6662 262.039 91.12 262.039C89.9666 262.039 89.2507 262.556 88.8928 263.332H88.7933V262.139H87.6598V269.775H88.8331V265.181ZM98.9515 269.934C100.642 269.934 101.756 268.9 101.954 267.548H100.781C100.562 268.383 99.8663 268.88 98.9515 268.88C97.5595 268.88 96.6646 267.727 96.6646 265.957C96.6646 264.227 97.5794 263.093 98.9515 263.093C99.9856 263.093 100.602 263.729 100.781 264.425H101.954C101.756 262.994 100.542 262.039 98.9316 262.039C96.8635 262.039 95.4913 263.67 95.4913 265.996C95.4913 268.283 96.8038 269.934 98.9515 269.934ZM108.363 272.639C109.422 272.639 110.167 272.077 110.61 270.889L113.851 262.139H112.579L110.471 268.224H110.391L108.283 262.139H107.01L109.834 269.815L109.616 270.411C109.188 271.575 108.661 271.684 107.806 271.465L107.508 272.499C107.627 272.559 107.965 272.639 108.363 272.639ZM118.229 269.934C120.297 269.934 121.689 268.363 121.689 265.996C121.689 263.61 120.297 262.039 118.229 262.039C116.161 262.039 114.769 263.61 114.769 265.996C114.769 268.363 116.161 269.934 118.229 269.934ZM118.229 268.88C116.658 268.88 115.942 267.528 115.942 265.996C115.942 264.465 116.658 263.093 118.229 263.093C119.8 263.093 120.516 264.465 120.516 265.996C120.516 267.528 119.8 268.88 118.229 268.88ZM128.293 266.653C128.293 268.085 127.199 268.741 126.324 268.741C125.349 268.741 124.653 268.025 124.653 266.911V262.139H123.48V266.991C123.48 268.94 124.514 269.874 125.946 269.874C127.099 269.874 127.855 269.258 128.213 268.482H128.293V269.775H129.466V262.139H128.293V266.653ZM131.615 269.775H132.788V264.943C132.788 263.908 133.604 263.153 134.717 263.153C135.03 263.153 135.354 263.212 135.433 263.232V262.039C135.299 262.029 134.991 262.019 134.817 262.019C133.902 262.019 133.106 262.536 132.828 263.292H132.748V262.139H131.615V269.775ZM140.92 269.775H142.153V266.056H144.381C146.752 266.056 147.821 264.614 147.821 262.815C147.821 261.015 146.752 259.593 144.361 259.593H140.92V269.775ZM142.153 264.962V260.687H144.321C145.977 260.687 146.608 261.592 146.608 262.815C146.608 264.038 145.977 264.962 144.341 264.962H142.153ZM152.668 269.934C154.737 269.934 156.129 268.363 156.129 265.996C156.129 263.61 154.737 262.039 152.668 262.039C150.6 262.039 149.208 263.61 149.208 265.996C149.208 268.363 150.6 269.934 152.668 269.934ZM152.668 268.88C151.097 268.88 150.381 267.528 150.381 265.996C150.381 264.465 151.097 263.093 152.668 263.093C154.239 263.093 154.955 264.465 154.955 265.996C154.955 267.528 154.239 268.88 152.668 268.88ZM163.329 263.849C162.961 262.765 162.135 262.039 160.624 262.039C159.013 262.039 157.82 262.954 157.82 264.246C157.82 265.3 158.447 266.006 159.849 266.335L161.121 266.633C161.892 266.812 162.255 267.18 162.255 267.707C162.255 268.363 161.559 268.9 160.465 268.9C159.506 268.9 158.904 268.487 158.695 267.667L157.581 267.945C157.855 269.243 158.924 269.934 160.485 269.934C162.26 269.934 163.468 268.965 163.468 267.647C163.468 266.583 162.802 265.912 161.439 265.579L160.306 265.3C159.401 265.077 158.993 264.773 158.993 264.187C158.993 263.531 159.689 263.053 160.624 263.053C161.648 263.053 162.071 263.62 162.275 264.147L163.329 263.849ZM168.555 262.139H166.924V260.309H165.751V262.139H164.598V263.133H165.751V267.906C165.751 269.238 166.825 269.874 167.819 269.874C168.257 269.874 168.535 269.795 168.694 269.735L168.456 268.681C168.356 268.701 168.197 268.741 167.939 268.741C167.422 268.741 166.924 268.582 166.924 267.587V263.133H168.555V262.139ZM170.32 269.775H171.493V265.002C171.493 263.884 172.309 263.093 173.223 263.093C174.113 263.093 174.735 263.675 174.735 264.545V269.775H175.928V264.803C175.928 263.819 176.544 263.093 177.618 263.093C178.453 263.093 179.169 263.536 179.169 264.664V269.775H180.343V264.664C180.343 262.869 179.378 262.039 178.016 262.039C176.922 262.039 176.122 262.541 175.729 263.332H175.65C175.272 262.516 174.605 262.039 173.601 262.039C172.607 262.039 171.871 262.516 171.553 263.332H171.453V262.139H170.32V269.775ZM184.735 269.954C186.067 269.954 186.763 269.238 187.002 268.741H187.062V269.775H188.235V264.744C188.235 262.318 186.386 262.039 185.411 262.039C184.258 262.039 182.945 262.437 182.349 263.829L183.462 264.227C183.721 263.67 184.332 263.073 185.451 263.073C186.53 263.073 187.062 263.645 187.062 264.624V264.664C187.062 265.231 186.485 265.181 185.093 265.36C183.676 265.544 182.13 265.857 182.13 267.607C182.13 269.099 183.283 269.954 184.735 269.954ZM184.914 268.9C183.979 268.9 183.303 268.482 183.303 267.667C183.303 266.772 184.119 266.494 185.033 266.374C185.531 266.315 186.863 266.175 187.062 265.937V267.011C187.062 267.965 186.306 268.9 184.914 268.9ZM191.55 265.181C191.55 263.849 192.375 263.093 193.499 263.093C194.588 263.093 195.249 263.804 195.249 265.002V269.775H196.422V264.923C196.422 262.974 195.383 262.039 193.837 262.039C192.683 262.039 191.968 262.556 191.61 263.332H191.51V262.139H190.377V269.775H191.55V265.181ZM205.387 269.934C206.859 269.934 207.356 269.019 207.614 268.602H207.754V269.775H208.887V259.593H207.714V263.352H207.614C207.356 262.954 206.898 262.039 205.407 262.039C203.478 262.039 202.146 263.57 202.146 265.977C202.146 268.403 203.478 269.934 205.387 269.934ZM205.546 268.88C204.075 268.88 203.319 267.587 203.319 265.957C203.319 264.346 204.055 263.093 205.546 263.093C206.978 263.093 207.734 264.246 207.734 265.957C207.734 267.687 206.958 268.88 205.546 268.88ZM213.446 269.954C214.778 269.954 215.474 269.238 215.713 268.741H215.773V269.775H216.946V264.744C216.946 262.318 215.097 262.039 214.122 262.039C212.969 262.039 211.656 262.437 211.06 263.829L212.173 264.227C212.432 263.67 213.043 263.073 214.162 263.073C215.241 263.073 215.773 263.645 215.773 264.624V264.664C215.773 265.231 215.196 265.181 213.804 265.36C212.387 265.544 210.841 265.857 210.841 267.607C210.841 269.099 211.994 269.954 213.446 269.954ZM213.625 268.9C212.69 268.9 212.014 268.482 212.014 267.667C212.014 266.772 212.83 266.494 213.744 266.374C214.241 266.315 215.574 266.175 215.773 265.937V267.011C215.773 267.965 215.017 268.9 213.625 268.9ZM222.409 262.139H220.778V260.309H219.605V262.139H218.451V263.133H219.605V267.906C219.605 269.238 220.678 269.874 221.673 269.874C222.11 269.874 222.389 269.795 222.548 269.735L222.309 268.681C222.21 268.701 222.051 268.741 221.792 268.741C221.275 268.741 220.778 268.582 220.778 267.587V263.133H222.409V262.139ZM226.421 269.954C227.753 269.954 228.449 269.238 228.688 268.741H228.747V269.775H229.921V264.744C229.921 262.318 228.071 262.039 227.097 262.039C225.943 262.039 224.631 262.437 224.034 263.829L225.148 264.227C225.406 263.67 226.018 263.073 227.137 263.073C228.215 263.073 228.747 263.645 228.747 264.624V264.664C228.747 265.231 228.171 265.181 226.779 265.36C225.362 265.544 223.816 265.857 223.816 267.607C223.816 269.099 224.969 269.954 226.421 269.954ZM226.6 268.9C225.665 268.9 224.989 268.482 224.989 267.667C224.989 266.772 225.804 266.494 226.719 266.374C227.216 266.315 228.548 266.175 228.747 265.937V267.011C228.747 267.965 227.992 268.9 226.6 268.9ZM238.247 269.954C239.579 269.954 240.275 269.238 240.514 268.741H240.574V269.775H241.747V264.744C241.747 262.318 239.897 262.039 238.923 262.039C237.77 262.039 236.457 262.437 235.86 263.829L236.974 264.227C237.233 263.67 237.844 263.073 238.963 263.073C240.042 263.073 240.574 263.645 240.574 264.624V264.664C240.574 265.231 239.997 265.181 238.605 265.36C237.188 265.544 235.642 265.857 235.642 267.607C235.642 269.099 236.795 269.954 238.247 269.954ZM238.426 268.9C237.491 268.9 236.815 268.482 236.815 267.667C236.815 266.772 237.63 266.494 238.545 266.374C239.042 266.315 240.375 266.175 240.574 265.937V267.011C240.574 267.965 239.818 268.9 238.426 268.9ZM246.991 269.934C248.681 269.934 249.795 268.9 249.993 267.548H248.82C248.601 268.383 247.905 268.88 246.991 268.88C245.599 268.88 244.704 267.727 244.704 265.957C244.704 264.227 245.618 263.093 246.991 263.093C248.025 263.093 248.641 263.729 248.82 264.425H249.993C249.795 262.994 248.581 262.039 246.971 262.039C244.903 262.039 243.53 263.67 243.53 265.996C243.53 268.283 244.843 269.934 246.991 269.934ZM251.709 269.775H252.882V264.943C252.882 263.908 253.697 263.153 254.811 263.153C255.124 263.153 255.447 263.212 255.527 263.232V262.039C255.393 262.029 255.084 262.019 254.91 262.019C253.996 262.019 253.2 262.536 252.922 263.292H252.842V262.139H251.709V269.775ZM259.787 269.934C261.856 269.934 263.248 268.363 263.248 265.996C263.248 263.61 261.856 262.039 259.787 262.039C257.719 262.039 256.327 263.61 256.327 265.996C256.327 268.363 257.719 269.934 259.787 269.934ZM259.787 268.88C258.216 268.88 257.501 267.528 257.501 265.996C257.501 264.465 258.216 263.093 259.787 263.093C261.358 263.093 262.074 264.465 262.074 265.996C262.074 267.528 261.358 268.88 259.787 268.88ZM270.448 263.849C270.08 262.765 269.255 262.039 267.743 262.039C266.132 262.039 264.939 262.954 264.939 264.246C264.939 265.3 265.566 266.006 266.968 266.335L268.24 266.633C269.011 266.812 269.374 267.18 269.374 267.707C269.374 268.363 268.678 268.9 267.584 268.9C266.625 268.9 266.023 268.487 265.814 267.667L264.701 267.945C264.974 269.243 266.043 269.934 267.604 269.934C269.379 269.934 270.587 268.965 270.587 267.647C270.587 266.583 269.921 265.912 268.559 265.579L267.425 265.3C266.52 265.077 266.113 264.773 266.113 264.187C266.113 263.531 266.809 263.053 267.743 263.053C268.767 263.053 269.19 263.62 269.394 264.147L270.448 263.849ZM277.762 263.849C277.394 262.765 276.569 262.039 275.058 262.039C273.447 262.039 272.254 262.954 272.254 264.246C272.254 265.3 272.88 266.006 274.282 266.335L275.555 266.633C276.325 266.812 276.688 267.18 276.688 267.707C276.688 268.363 275.992 268.9 274.899 268.9C273.939 268.9 273.338 268.487 273.129 267.667L272.015 267.945C272.289 269.243 273.357 269.934 274.919 269.934C276.693 269.934 277.901 268.965 277.901 267.647C277.901 266.583 277.235 265.912 275.873 265.579L274.74 265.3C273.835 265.077 273.427 264.773 273.427 264.187C273.427 263.531 274.123 263.053 275.058 263.053C276.082 263.053 276.504 263.62 276.708 264.147L277.762 263.849ZM286.489 269.934C287.96 269.934 288.457 269.019 288.716 268.602H288.855V269.775H289.989V259.593H288.815V263.352H288.716C288.457 262.954 288 262.039 286.509 262.039C284.58 262.039 283.247 263.57 283.247 265.977C283.247 268.403 284.58 269.934 286.489 269.934ZM286.648 268.88C285.176 268.88 284.42 267.587 284.42 265.957C284.42 264.346 285.156 263.093 286.648 263.093C288.08 263.093 288.835 264.246 288.835 265.957C288.835 267.687 288.06 268.88 286.648 268.88ZM295.502 269.934C297.053 269.934 298.187 269.158 298.545 268.005L297.411 267.687C297.113 268.482 296.422 268.88 295.502 268.88C294.125 268.88 293.175 267.99 293.121 266.354H298.664V265.857C298.664 263.014 296.974 262.039 295.383 262.039C293.315 262.039 291.942 263.67 291.942 266.016C291.942 268.363 293.295 269.934 295.502 269.934ZM293.121 265.34C293.2 264.152 294.04 263.093 295.383 263.093C296.656 263.093 297.471 264.048 297.471 265.34H293.121ZM306.461 262.139H305.188L303.08 268.224H303.001L300.893 262.139H299.62L302.444 269.775H303.637L306.461 262.139ZM308.009 269.775H309.183V262.139H308.009V269.775ZM308.606 260.866C309.063 260.866 309.441 260.508 309.441 260.07C309.441 259.633 309.063 259.275 308.606 259.275C308.149 259.275 307.771 259.633 307.771 260.07C307.771 260.508 308.149 260.866 308.606 260.866ZM314.434 269.934C316.124 269.934 317.238 268.9 317.437 267.548H316.263C316.045 268.383 315.349 268.88 314.434 268.88C313.042 268.88 312.147 267.727 312.147 265.957C312.147 264.227 313.062 263.093 314.434 263.093C315.468 263.093 316.085 263.729 316.263 264.425H317.437C317.238 262.994 316.025 262.039 314.414 262.039C312.346 262.039 310.974 263.67 310.974 265.996C310.974 268.283 312.286 269.934 314.434 269.934ZM322.354 269.934C323.905 269.934 325.038 269.158 325.396 268.005L324.263 267.687C323.964 268.482 323.273 268.88 322.354 268.88C320.977 268.88 320.027 267.99 319.972 266.354H325.516V265.857C325.516 263.014 323.825 262.039 322.234 262.039C320.166 262.039 318.794 263.67 318.794 266.016C318.794 268.363 320.146 269.934 322.354 269.934ZM319.972 265.34C320.052 264.152 320.892 263.093 322.234 263.093C323.507 263.093 324.322 264.048 324.322 265.34H319.972ZM332.71 263.849C332.342 262.765 331.516 262.039 330.005 262.039C328.394 262.039 327.201 262.954 327.201 264.246C327.201 265.3 327.827 266.006 329.229 266.335L330.502 266.633C331.273 266.812 331.636 267.18 331.636 267.707C331.636 268.363 330.94 268.9 329.846 268.9C328.886 268.9 328.285 268.487 328.076 267.667L326.962 267.945C327.236 269.243 328.305 269.934 329.866 269.934C331.641 269.934 332.849 268.965 332.849 267.647C332.849 266.583 332.183 265.912 330.82 265.579L329.687 265.3C328.782 265.077 328.374 264.773 328.374 264.187C328.374 263.531 329.07 263.053 330.005 263.053C331.029 263.053 331.452 263.62 331.656 264.147L332.71 263.849ZM54.1152 289.906C55.3233 289.906 56.3027 288.926 56.3027 287.718C56.3027 286.51 55.3233 285.531 54.1152 285.531C52.9071 285.531 51.9277 286.51 51.9277 287.718C51.9277 288.926 52.9071 289.906 54.1152 289.906ZM71.0982 291.775H74.7772C77.1834 291.775 78.1777 290.602 78.1777 289.07C78.1777 287.46 77.0641 286.585 76.1294 286.525V286.425C77.0044 286.187 77.78 285.61 77.78 284.298C77.78 282.806 76.7857 281.593 74.6578 281.593H71.0982V291.775ZM72.3311 290.681V287.141H74.8368C76.1692 287.141 77.0044 288.036 77.0044 289.07C77.0044 289.965 76.388 290.681 74.7772 290.681H72.3311ZM72.3311 286.068V282.687H74.6578C76.0101 282.687 76.6067 283.403 76.6067 284.298C76.6067 285.371 75.7317 286.068 74.6181 286.068H72.3311ZM82.2917 291.954C83.6241 291.954 84.3201 291.238 84.5588 290.741H84.6184V291.775H85.7917V286.744C85.7917 284.318 83.9423 284.039 82.9679 284.039C81.8145 284.039 80.502 284.437 79.9054 285.829L81.019 286.227C81.2775 285.67 81.889 285.073 83.0076 285.073C84.0865 285.073 84.6184 285.645 84.6184 286.624V286.664C84.6184 287.231 84.0417 287.181 82.6497 287.36C81.2328 287.544 79.6866 287.857 79.6866 289.607C79.6866 291.099 80.84 291.954 82.2917 291.954ZM82.4707 290.9C81.536 290.9 80.8599 290.482 80.8599 289.667C80.8599 288.772 81.6752 288.494 82.59 288.374C83.0872 288.315 84.4196 288.175 84.6184 287.937V289.011C84.6184 289.965 83.8627 290.9 82.4707 290.9ZM91.0355 291.934C92.7259 291.934 93.8395 290.9 94.0384 289.548H92.8651C92.6463 290.383 91.9503 290.88 91.0355 290.88C89.6435 290.88 88.7486 289.727 88.7486 287.957C88.7486 286.227 89.6634 285.093 91.0355 285.093C92.0696 285.093 92.6861 285.729 92.8651 286.425H94.0384C93.8395 284.994 92.6264 284.039 91.0156 284.039C88.9474 284.039 87.5753 285.67 87.5753 287.996C87.5753 290.283 88.8878 291.934 91.0355 291.934ZM95.7536 291.775H96.9268V288.916L97.7472 288.156L100.606 291.775H102.097L98.6321 287.4L101.859 284.139H100.407L97.0661 287.539H96.9268V281.593H95.7536V291.775ZM108.181 288.653C108.181 290.085 107.088 290.741 106.213 290.741C105.238 290.741 104.542 290.025 104.542 288.911V284.139H103.369V288.991C103.369 290.94 104.403 291.874 105.835 291.874C106.988 291.874 107.744 291.258 108.102 290.482H108.181V291.775H109.355V284.139H108.181V288.653ZM111.504 294.639H112.677V290.602H112.776C113.035 291.019 113.532 291.934 115.004 291.934C116.913 291.934 118.245 290.403 118.245 287.977C118.245 285.57 116.913 284.039 114.984 284.039C113.492 284.039 113.035 284.954 112.776 285.352H112.637V284.139H111.504V294.639ZM112.657 287.957C112.657 286.246 113.413 285.093 114.844 285.093C116.336 285.093 117.072 286.346 117.072 287.957C117.072 289.587 116.316 290.88 114.844 290.88C113.433 290.88 112.657 289.687 112.657 287.957ZM124.728 294.639C125.787 294.639 126.533 294.077 126.975 292.889L130.217 284.139H128.944L126.836 290.224H126.756L124.648 284.139H123.376L126.2 291.815L125.981 292.411C125.553 293.575 125.026 293.684 124.171 293.465L123.873 294.499C123.992 294.559 124.33 294.639 124.728 294.639ZM134.594 291.934C136.662 291.934 138.054 290.363 138.054 287.996C138.054 285.61 136.662 284.039 134.594 284.039C132.526 284.039 131.134 285.61 131.134 287.996C131.134 290.363 132.526 291.934 134.594 291.934ZM134.594 290.88C133.023 290.88 132.307 289.528 132.307 287.996C132.307 286.465 133.023 285.093 134.594 285.093C136.165 285.093 136.881 286.465 136.881 287.996C136.881 289.528 136.165 290.88 134.594 290.88ZM144.658 288.653C144.658 290.085 143.564 290.741 142.689 290.741C141.715 290.741 141.019 290.025 141.019 288.911V284.139H139.845V288.991C139.845 290.94 140.879 291.874 142.311 291.874C143.465 291.874 144.22 291.258 144.578 290.482H144.658V291.775H145.831V284.139H144.658V288.653ZM147.98 291.775H149.153V286.943C149.153 285.908 149.969 285.153 151.082 285.153C151.396 285.153 151.719 285.212 151.798 285.232V284.039C151.664 284.029 151.356 284.019 151.182 284.019C150.267 284.019 149.472 284.536 149.193 285.292H149.114V284.139H147.98V291.775ZM160.01 291.934C161.482 291.934 161.979 291.019 162.237 290.602H162.377V291.775H163.51V281.593H162.337V285.352H162.237C161.979 284.954 161.521 284.039 160.03 284.039C158.101 284.039 156.769 285.57 156.769 287.977C156.769 290.403 158.101 291.934 160.01 291.934ZM160.169 290.88C158.698 290.88 157.942 289.587 157.942 287.957C157.942 286.346 158.678 285.093 160.169 285.093C161.601 285.093 162.357 286.246 162.357 287.957C162.357 289.687 161.581 290.88 160.169 290.88ZM168.069 291.954C169.401 291.954 170.097 291.238 170.336 290.741H170.396V291.775H171.569V286.744C171.569 284.318 169.72 284.039 168.745 284.039C167.592 284.039 166.279 284.437 165.683 285.829L166.796 286.227C167.055 285.67 167.666 285.073 168.785 285.073C169.864 285.073 170.396 285.645 170.396 286.624V286.664C170.396 287.231 169.819 287.181 168.427 287.36C167.01 287.544 165.464 287.857 165.464 289.607C165.464 291.099 166.617 291.954 168.069 291.954ZM168.248 290.9C167.313 290.9 166.637 290.482 166.637 289.667C166.637 288.772 167.453 288.494 168.367 288.374C168.865 288.315 170.197 288.175 170.396 287.937V289.011C170.396 289.965 169.64 290.9 168.248 290.9ZM177.032 284.139H175.401V282.309H174.228V284.139H173.074V285.133H174.228V289.906C174.228 291.238 175.301 291.874 176.296 291.874C176.733 291.874 177.012 291.795 177.171 291.735L176.932 290.681C176.833 290.701 176.674 290.741 176.415 290.741C175.898 290.741 175.401 290.582 175.401 289.587V285.133H177.032V284.139ZM181.044 291.954C182.376 291.954 183.072 291.238 183.311 290.741H183.37V291.775H184.544V286.744C184.544 284.318 182.694 284.039 181.72 284.039C180.566 284.039 179.254 284.437 178.657 285.829L179.771 286.227C180.029 285.67 180.641 285.073 181.76 285.073C182.838 285.073 183.37 285.645 183.37 286.624V286.664C183.37 287.231 182.794 287.181 181.402 287.36C179.985 287.544 178.439 287.857 178.439 289.607C178.439 291.099 179.592 291.954 181.044 291.954ZM181.223 290.9C180.288 290.9 179.612 290.482 179.612 289.667C179.612 288.772 180.427 288.494 181.342 288.374C181.839 288.315 183.172 288.175 183.37 287.937V289.011C183.37 289.965 182.615 290.9 181.223 290.9ZM193.944 284.139H192.313V282.309H191.14V284.139H189.986V285.133H191.14V289.906C191.14 291.238 192.214 291.874 193.208 291.874C193.645 291.874 193.924 291.795 194.083 291.735L193.844 290.681C193.745 290.701 193.586 290.741 193.327 290.741C192.81 290.741 192.313 290.582 192.313 289.587V285.133H193.944V284.139ZM198.729 291.934C200.797 291.934 202.189 290.363 202.189 287.996C202.189 285.61 200.797 284.039 198.729 284.039C196.661 284.039 195.269 285.61 195.269 287.996C195.269 290.363 196.661 291.934 198.729 291.934ZM198.729 290.88C197.158 290.88 196.442 289.528 196.442 287.996C196.442 286.465 197.158 285.093 198.729 285.093C200.3 285.093 201.016 286.465 201.016 287.996C201.016 289.528 200.3 290.88 198.729 290.88ZM211.239 284.139H209.608V282.309H208.435V284.139H207.281V285.133H208.435V289.906C208.435 291.238 209.509 291.874 210.503 291.874C210.94 291.874 211.219 291.795 211.378 291.735L211.139 290.681C211.04 290.701 210.881 290.741 210.622 290.741C210.105 290.741 209.608 290.582 209.608 289.587V285.133H211.239V284.139ZM214.341 287.181C214.341 285.849 215.191 285.093 216.349 285.093C217.453 285.093 218.119 285.789 218.119 287.002V291.775H219.293V286.923C219.293 284.959 218.249 284.039 216.688 284.039C215.484 284.039 214.798 284.541 214.44 285.332H214.341V281.593H213.168V291.775H214.341V287.181ZM224.641 291.934C226.192 291.934 227.325 291.158 227.683 290.005L226.55 289.687C226.252 290.482 225.561 290.88 224.641 290.88C223.264 290.88 222.314 289.99 222.259 288.354H227.803V287.857C227.803 285.014 226.112 284.039 224.521 284.039C222.453 284.039 221.081 285.67 221.081 288.016C221.081 290.363 222.433 291.934 224.641 291.934ZM222.259 287.34C222.339 286.152 223.179 285.093 224.521 285.093C225.794 285.093 226.61 286.048 226.61 287.34H222.259ZM233.684 291.775H234.917V288.056H237.144C239.516 288.056 240.585 286.614 240.585 284.815C240.585 283.015 239.516 281.593 237.124 281.593H233.684V291.775ZM234.917 286.962V282.687H237.085C238.74 282.687 239.372 283.592 239.372 284.815C239.372 286.038 238.74 286.962 237.105 286.962H234.917ZM245.432 291.934C247.5 291.934 248.892 290.363 248.892 287.996C248.892 285.61 247.5 284.039 245.432 284.039C243.364 284.039 241.972 285.61 241.972 287.996C241.972 290.363 243.364 291.934 245.432 291.934ZM245.432 290.88C243.861 290.88 243.145 289.528 243.145 287.996C243.145 286.465 243.861 285.093 245.432 285.093C247.003 285.093 247.719 286.465 247.719 287.996C247.719 289.528 247.003 290.88 245.432 290.88ZM256.092 285.849C255.724 284.765 254.899 284.039 253.388 284.039C251.777 284.039 250.584 284.954 250.584 286.246C250.584 287.3 251.21 288.006 252.612 288.335L253.885 288.633C254.656 288.812 255.018 289.18 255.018 289.707C255.018 290.363 254.322 290.9 253.229 290.9C252.269 290.9 251.668 290.487 251.459 289.667L250.345 289.945C250.619 291.243 251.688 291.934 253.249 291.934C255.023 291.934 256.232 290.965 256.232 289.647C256.232 288.583 255.565 287.912 254.203 287.579L253.07 287.3C252.165 287.077 251.757 286.773 251.757 286.187C251.757 285.531 252.453 285.053 253.388 285.053C254.412 285.053 254.835 285.62 255.038 286.147L256.092 285.849ZM261.319 284.139H259.688V282.309H258.515V284.139H257.361V285.133H258.515V289.906C258.515 291.238 259.589 291.874 260.583 291.874C261.02 291.874 261.299 291.795 261.458 291.735L261.219 290.681C261.12 290.701 260.961 290.741 260.702 290.741C260.185 290.741 259.688 290.582 259.688 289.587V285.133H261.319V284.139ZM263.084 291.775H264.257V287.002C264.257 285.884 265.072 285.093 265.987 285.093C266.877 285.093 267.498 285.675 267.498 286.545V291.775H268.692V286.803C268.692 285.819 269.308 285.093 270.382 285.093C271.217 285.093 271.933 285.536 271.933 286.664V291.775H273.106V286.664C273.106 284.869 272.142 284.039 270.78 284.039C269.686 284.039 268.885 284.541 268.493 285.332H268.413C268.035 284.516 267.369 284.039 266.365 284.039C265.371 284.039 264.635 284.516 264.317 285.332H264.217V284.139H263.084V291.775ZM277.499 291.954C278.831 291.954 279.527 291.238 279.766 290.741H279.825V291.775H280.999V286.744C280.999 284.318 279.149 284.039 278.175 284.039C277.021 284.039 275.709 284.437 275.112 285.829L276.226 286.227C276.485 285.67 277.096 285.073 278.215 285.073C279.294 285.073 279.825 285.645 279.825 286.624V286.664C279.825 287.231 279.249 287.181 277.857 287.36C276.44 287.544 274.894 287.857 274.894 289.607C274.894 291.099 276.047 291.954 277.499 291.954ZM277.678 290.9C276.743 290.9 276.067 290.482 276.067 289.667C276.067 288.772 276.882 288.494 277.797 288.374C278.294 288.315 279.627 288.175 279.825 287.937V289.011C279.825 289.965 279.07 290.9 277.678 290.9ZM284.314 287.181C284.314 285.849 285.139 285.093 286.262 285.093C287.351 285.093 288.012 285.804 288.012 287.002V291.775H289.186V286.923C289.186 284.974 288.147 284.039 286.6 284.039C285.447 284.039 284.731 284.556 284.373 285.332H284.274V284.139H283.14V291.775H284.314V287.181ZM298.369 291.934C300.06 291.934 301.173 290.9 301.372 289.548H300.199C299.98 290.383 299.284 290.88 298.369 290.88C296.977 290.88 296.083 289.727 296.083 287.957C296.083 286.227 296.997 285.093 298.369 285.093C299.404 285.093 300.02 285.729 300.199 286.425H301.372C301.173 284.994 299.96 284.039 298.35 284.039C296.281 284.039 294.909 285.67 294.909 287.996C294.909 290.283 296.222 291.934 298.369 291.934ZM304.261 281.593H303.088V291.775H304.261V281.593ZM309.512 291.934C311.58 291.934 312.972 290.363 312.972 287.996C312.972 285.61 311.58 284.039 309.512 284.039C307.444 284.039 306.052 285.61 306.052 287.996C306.052 290.363 307.444 291.934 309.512 291.934ZM309.512 290.88C307.941 290.88 307.225 289.528 307.225 287.996C307.225 286.465 307.941 285.093 309.512 285.093C311.083 285.093 311.799 286.465 311.799 287.996C311.799 289.528 311.083 290.88 309.512 290.88ZM319.576 288.653C319.576 290.085 318.482 290.741 317.607 290.741C316.633 290.741 315.937 290.025 315.937 288.911V284.139H314.763V288.991C314.763 290.94 315.797 291.874 317.229 291.874C318.383 291.874 319.138 291.258 319.496 290.482H319.576V291.775H320.749V284.139H319.576V288.653ZM325.782 291.934C327.253 291.934 327.75 291.019 328.009 290.602H328.148V291.775H329.282V281.593H328.108V285.352H328.009C327.75 284.954 327.293 284.039 325.801 284.039C323.873 284.039 322.54 285.57 322.54 287.977C322.54 290.403 323.873 291.934 325.782 291.934ZM325.941 290.88C324.469 290.88 323.713 289.587 323.713 287.957C323.713 286.346 324.449 285.093 325.941 285.093C327.373 285.093 328.128 286.246 328.128 287.957C328.128 289.687 327.353 290.88 325.941 290.88ZM54.1152 311.906C55.3233 311.906 56.3027 310.926 56.3027 309.718C56.3027 308.51 55.3233 307.531 54.1152 307.531C52.9071 307.531 51.9277 308.51 51.9277 309.718C51.9277 310.926 52.9071 311.906 54.1152 311.906ZM72.3311 303.593H71.0982V313.775H72.3311V303.593ZM77.9652 306.139H76.3345V304.309H75.1612V306.139H74.0078V307.133H75.1612V311.906C75.1612 313.238 76.2351 313.874 77.2294 313.874C77.6669 313.874 77.9453 313.795 78.1044 313.735L77.8658 312.681C77.7663 312.701 77.6072 312.741 77.3487 312.741C76.8317 312.741 76.3345 312.582 76.3345 311.587V307.133H77.9652V306.139ZM80.7443 303.593H79.6506V307.093H80.7443V303.593ZM88.2427 307.849C87.8748 306.765 87.0495 306.039 85.5382 306.039C83.9274 306.039 82.7342 306.954 82.7342 308.246C82.7342 309.3 83.3606 310.006 84.7626 310.335L86.0353 310.633C86.8059 310.812 87.1689 311.18 87.1689 311.707C87.1689 312.363 86.4728 312.9 85.3791 312.9C84.4196 312.9 83.818 312.487 83.6092 311.667L82.4956 311.945C82.769 313.243 83.8379 313.934 85.399 313.934C87.1738 313.934 88.3819 312.965 88.3819 311.647C88.3819 310.583 87.7157 309.912 86.3535 309.579L85.22 309.3C84.3152 309.077 83.9075 308.773 83.9075 308.187C83.9075 307.531 84.6035 307.053 85.5382 307.053C86.5623 307.053 86.9849 307.62 87.1887 308.147L88.2427 307.849ZM97.4862 306.139H95.7759V305.363C95.7759 304.607 96.0941 304.21 96.8697 304.21C97.2077 304.21 97.4066 304.289 97.5259 304.329L97.864 303.315C97.685 303.235 97.3271 303.116 96.7504 303.116C95.6566 303.116 94.6026 303.772 94.6026 305.085V306.139H93.3697V307.133H94.6026V313.775H95.7759V307.133H97.4862V306.139ZM99.1305 313.775H100.304V308.943C100.304 307.908 101.119 307.153 102.233 307.153C102.546 307.153 102.869 307.212 102.949 307.232V306.039C102.814 306.029 102.506 306.019 102.332 306.019C101.417 306.019 100.622 306.536 100.344 307.292H100.264V306.139H99.1305V313.775ZM107.309 313.934C108.86 313.934 109.993 313.158 110.351 312.005L109.218 311.687C108.92 312.482 108.229 312.88 107.309 312.88C105.932 312.88 104.982 311.99 104.927 310.354H110.471V309.857C110.471 307.014 108.78 306.039 107.189 306.039C105.121 306.039 103.749 307.67 103.749 310.016C103.749 312.363 105.101 313.934 107.309 313.934ZM104.927 309.34C105.007 308.152 105.847 307.093 107.189 307.093C108.462 307.093 109.278 308.048 109.278 309.34H104.927ZM115.457 313.934C117.008 313.934 118.142 313.158 118.5 312.005L117.366 311.687C117.068 312.482 116.377 312.88 115.457 312.88C114.08 312.88 113.131 311.99 113.076 310.354H118.619V309.857C118.619 307.014 116.929 306.039 115.338 306.039C113.27 306.039 111.898 307.67 111.898 310.016C111.898 312.363 113.25 313.934 115.457 313.934ZM113.076 309.34C113.155 308.152 113.996 307.093 115.338 307.093C116.611 307.093 117.426 308.048 117.426 309.34H113.076ZM121.955 303.593H120.603L120.702 310.911H121.856L121.955 303.593ZM121.279 313.854C121.771 313.854 122.174 313.452 122.174 312.96C122.174 312.467 121.771 312.065 121.279 312.065C120.787 312.065 120.384 312.467 120.384 312.96C120.384 313.452 120.787 313.854 121.279 313.854Z" fill="#212121"/>
<path d="M57.4577 185.344H59.7972L62.4243 176.159H62.5266L65.1473 185.344H67.4868L71.1814 172.253H68.631L66.2723 181.88H66.1573L63.6324 172.253H61.3121L58.7936 181.873H58.6722L56.3135 172.253H53.7631L57.4577 185.344ZM74.4774 179.591C74.4774 178.172 75.3595 177.354 76.5996 177.354C77.8141 177.354 78.53 178.127 78.53 179.451V185.344H80.8439V179.093C80.8439 176.721 79.5016 175.398 77.4625 175.398C75.954 175.398 74.9952 176.082 74.5414 177.194H74.4263V172.253H72.1635V185.344H74.4774V179.591ZM83.7292 189.026C85.5318 189.026 86.5737 188.099 87.1298 186.533L91.0609 175.526H88.6L86.3308 182.941H86.2285L83.9657 175.526H81.5112L85.0715 185.549L84.8734 186.079C84.4451 187.198 83.7676 187.274 82.7576 186.98L82.2207 188.783C82.5339 188.911 83.0964 189.026 83.7292 189.026ZM103.767 178.121C103.447 176.459 102.118 175.398 99.8166 175.398C97.4515 175.398 95.8408 176.561 95.8471 178.377C95.8408 179.808 96.7229 180.755 98.6085 181.144L100.283 181.496C101.185 181.694 101.606 182.058 101.606 182.615C101.606 183.286 100.878 183.791 99.7783 183.791C98.7172 183.791 98.0268 183.33 97.8287 182.448L95.5723 182.666C95.8599 184.468 97.3748 185.536 99.7846 185.536C102.239 185.536 103.971 184.264 103.978 182.404C103.971 181.004 103.07 180.147 101.216 179.745L99.5417 179.387C98.5446 179.163 98.1483 178.818 98.1547 178.249C98.1483 177.584 98.8834 177.124 99.8486 177.124C100.916 177.124 101.479 177.705 101.658 178.351L103.767 178.121ZM105.326 185.344H107.64V175.526H105.326V185.344ZM106.489 174.132C107.224 174.132 107.825 173.57 107.825 172.88C107.825 172.183 107.224 171.62 106.489 171.62C105.748 171.62 105.147 172.183 105.147 172.88C105.147 173.57 105.748 174.132 106.489 174.132ZM113.729 189.23C116.382 189.23 118.338 188.016 118.338 185.504V175.526H116.056V177.149H115.928C115.576 176.44 114.841 175.398 113.109 175.398C110.84 175.398 109.057 177.175 109.057 180.403C109.057 183.605 110.84 185.203 113.103 185.203C114.784 185.203 115.57 184.302 115.928 183.58H116.043V185.44C116.043 186.884 115.084 187.479 113.767 187.479C112.374 187.479 111.76 186.821 111.479 186.245L109.395 186.75C109.817 188.125 111.23 189.23 113.729 189.23ZM113.748 183.388C112.221 183.388 111.415 182.199 111.415 180.39C111.415 178.607 112.208 177.296 113.748 177.296C115.238 177.296 116.056 178.53 116.056 180.39C116.056 182.263 115.225 183.388 113.748 183.388ZM122.463 179.591C122.463 178.172 123.32 177.354 124.541 177.354C125.736 177.354 126.452 178.14 126.452 179.451V185.344H128.766V179.093C128.772 176.74 127.43 175.398 125.403 175.398C123.933 175.398 122.923 176.101 122.476 177.194H122.361V175.526H120.149V185.344H122.463V179.591ZM140.721 181.215C140.721 182.71 139.653 183.452 138.63 183.452C137.518 183.452 136.777 182.666 136.777 181.419V175.526H134.463V181.777C134.463 184.136 135.805 185.472 137.736 185.472C139.206 185.472 140.241 184.698 140.689 183.599H140.791V185.344H143.035V175.526H140.721V181.215ZM144.854 189.026H147.168V183.797H147.264C147.628 184.513 148.389 185.517 150.076 185.517C152.39 185.517 154.122 183.682 154.122 180.448C154.122 177.175 152.339 175.398 150.07 175.398C148.338 175.398 147.615 176.44 147.264 177.149H147.13V175.526H144.854V189.026ZM147.123 180.435C147.123 178.53 147.941 177.296 149.431 177.296C150.971 177.296 151.764 178.607 151.764 180.435C151.764 182.276 150.958 183.618 149.431 183.618C147.954 183.618 147.123 182.34 147.123 180.435ZM157.756 181.496H159.884V181.33C159.897 179.975 160.338 179.355 161.38 178.715C162.556 178.012 163.291 177.054 163.291 175.59C163.291 173.429 161.61 172.074 159.168 172.074C156.931 172.074 155.116 173.314 155.052 175.743H157.327C157.385 174.541 158.254 173.966 159.155 173.966C160.133 173.966 160.92 174.618 160.92 175.622C160.92 176.517 160.325 177.13 159.552 177.616C158.42 178.319 157.768 179.029 157.756 181.33V181.496ZM158.874 185.485C159.628 185.485 160.274 184.858 160.28 184.078C160.274 183.311 159.628 182.685 158.874 182.685C158.094 182.685 157.462 183.311 157.468 184.078C157.462 184.858 158.094 185.485 158.874 185.485Z" fill="#212121"/>
<ellipse cx="81.2" cy="99.3917" rx="31.2" ry="31.3917" fill="white"/>
<path d="M126.857 108.373V90.2111C126.857 90.1056 126.88 90.0013 126.924 89.9057C126.969 89.81 127.033 89.7252 127.113 89.6573C127.295 89.5002 127.529 89.4177 127.769 89.4261H132.848C134.352 89.3541 135.828 89.856 136.981 90.8315C138.016 91.7679 138.534 93.2451 138.534 95.2631V95.5068C138.534 97.5248 138.007 99.0064 136.954 99.9517C135.779 100.935 134.28 101.44 132.753 101.365H129.128V108.373C129.132 108.493 129.103 108.612 129.045 108.716C128.987 108.821 128.901 108.908 128.797 108.967C128.557 109.11 128.283 109.185 128.004 109.185C127.725 109.185 127.451 109.11 127.211 108.967C127.103 108.911 127.013 108.825 126.95 108.721C126.888 108.616 126.856 108.496 126.857 108.373ZM129.112 99.4835H132.756C133.236 99.513 133.716 99.4427 134.167 99.277C134.618 99.1113 135.03 98.8538 135.378 98.5205C136.052 97.7229 136.384 96.6892 136.302 95.6457V95.313C136.384 94.2695 136.052 93.2358 135.378 92.4382C135.03 92.1058 134.618 91.8493 134.167 91.6848C133.715 91.5202 133.236 91.4511 132.756 91.4819H129.132L129.112 99.4835Z" fill="#FF6C37"/>
<path d="M146.421 103.453V95.3174C146.421 93.2867 146.945 91.7962 147.992 90.8459C149.206 89.9286 150.684 89.4326 152.202 89.4326C153.721 89.4326 155.199 89.9286 156.413 90.8459C157.469 91.7956 157.993 93.2867 157.999 95.3174V103.456C157.999 105.491 157.47 106.982 156.413 107.927C155.2 108.854 153.719 109.356 152.196 109.356C150.673 109.356 149.191 108.854 147.978 107.927C146.939 106.975 146.421 105.498 146.421 103.453ZM148.682 103.453C148.682 106.012 149.849 107.292 152.196 107.292C152.674 107.324 153.155 107.255 153.607 107.091C154.058 106.926 154.47 106.669 154.817 106.335C155.488 105.533 155.82 104.498 155.741 103.453V95.3174C155.782 94.8001 155.721 94.2797 155.562 93.786C155.403 93.2922 155.149 92.8349 154.814 92.4401C154.466 92.1076 154.053 91.8511 153.602 91.6865C153.151 91.522 152.671 91.453 152.192 91.4837C149.846 91.4837 148.679 92.7628 148.679 95.3149L148.682 103.453Z" fill="#FF6C37"/>
<path d="M165.979 106.401C165.988 106.096 166.096 105.801 166.287 105.564C166.358 105.45 166.454 105.354 166.568 105.283C166.681 105.212 166.809 105.168 166.943 105.154C167.18 105.197 167.397 105.318 167.559 105.498C167.807 105.722 168.07 105.973 168.339 106.246C168.704 106.588 169.138 106.846 169.61 107.005C170.239 107.241 170.906 107.354 171.577 107.337C172.562 107.396 173.535 107.094 174.316 106.487C174.659 106.173 174.926 105.786 175.099 105.354C175.272 104.922 175.344 104.456 175.313 103.992C175.331 103.548 175.261 103.104 175.104 102.688C174.948 102.272 174.71 101.892 174.404 101.571C173.781 100.945 173.029 100.462 172.202 100.157C171.337 99.8339 170.478 99.4979 169.58 99.1153C168.71 98.746 167.948 98.1605 167.365 97.4139C166.732 96.5618 166.41 95.5156 166.456 94.4525C166.436 93.5968 166.62 92.7488 166.993 91.9794C167.309 91.3239 167.808 90.7749 168.429 90.3993C169.012 90.0525 169.64 89.7904 170.296 89.6209C170.973 89.4542 171.666 89.3723 172.363 89.3773C173.443 89.3717 174.517 89.5341 175.548 89.8588C176.557 90.1914 177.068 90.6372 177.068 91.1777C177.056 91.468 176.963 91.7489 176.8 91.9885C176.733 92.1184 176.633 92.2276 176.509 92.3043C176.385 92.3811 176.243 92.4226 176.098 92.4243C175.685 92.294 175.282 92.133 174.892 91.9428C174.107 91.5919 173.255 91.4163 172.396 91.428C171.476 91.3866 170.565 91.6158 169.773 92.0875C169.435 92.3246 169.164 92.6464 168.986 93.0212C168.81 93.396 168.733 93.8109 168.764 94.2247C168.745 94.6091 168.815 94.9927 168.968 95.3453C169.122 95.6978 169.355 96.0094 169.649 96.2555C170.307 96.7969 171.058 97.2126 171.864 97.4821C172.736 97.7923 173.6 98.1415 174.486 98.5374C175.37 98.9667 176.126 99.6244 176.675 100.443C177.315 101.434 177.633 102.6 177.584 103.781C177.584 105.64 177.047 107.038 175.972 107.988C174.775 108.978 173.254 109.484 171.705 109.406C170.293 109.452 168.895 109.103 167.668 108.397C166.53 107.72 165.979 107.054 165.979 106.401Z" fill="#FF6C37"/>
<path d="M184.299 90.4284C184.294 90.1779 184.369 89.9325 184.515 89.7291C184.577 89.6303 184.665 89.55 184.769 89.4967C184.873 89.4434 184.989 89.4188 185.105 89.4255H196.037C196.153 89.4188 196.269 89.4434 196.373 89.4967C196.476 89.55 196.564 89.6303 196.627 89.7291C196.77 89.9338 196.845 90.1783 196.843 90.4284C196.849 90.6911 196.773 90.9491 196.627 91.1669C196.566 91.2681 196.479 91.351 196.375 91.4068C196.271 91.4625 196.154 91.4891 196.037 91.4838H191.744V108.374C191.748 108.493 191.719 108.612 191.661 108.717C191.603 108.821 191.517 108.908 191.413 108.967C191.173 109.11 190.899 109.186 190.62 109.186C190.341 109.186 190.067 109.11 189.827 108.967C189.723 108.908 189.637 108.821 189.579 108.717C189.521 108.612 189.492 108.493 189.496 108.374V91.4838H185.137C185.021 91.4899 184.905 91.465 184.802 91.4118C184.698 91.3584 184.61 91.2786 184.547 91.1802C184.386 90.9632 184.299 90.6995 184.299 90.4284Z" fill="#FF6C37"/>
<path d="M204.499 108.373V90.5664C204.457 90.3085 204.518 90.0445 204.669 89.832C204.82 89.6195 205.048 89.4757 205.305 89.4321C205.422 89.4121 205.541 89.4121 205.658 89.4321C206.373 89.4321 206.969 89.9069 207.461 90.8633L211.676 99.0013L215.923 90.8633C216.441 89.9069 217.037 89.4321 217.719 89.4321C217.975 89.3908 218.236 89.4534 218.446 89.6061C218.656 89.7588 218.797 89.989 218.838 90.2462C218.838 90.2498 218.838 90.2534 218.838 90.257C218.854 90.3508 218.854 90.4468 218.838 90.5406V108.347C218.842 108.467 218.813 108.585 218.755 108.69C218.696 108.794 218.611 108.881 218.508 108.94C218.267 109.083 217.993 109.158 217.715 109.158C217.435 109.158 217.162 109.083 216.922 108.94C216.818 108.881 216.733 108.794 216.674 108.689C216.616 108.585 216.587 108.467 216.591 108.347V94.1805L212.534 101.857C212.47 102.044 212.35 102.207 212.193 102.324C212.035 102.442 211.846 102.509 211.65 102.516C211.461 102.503 211.281 102.433 211.132 102.316C210.984 102.198 210.874 102.038 210.816 101.857L206.76 94.0492V108.373C206.764 108.493 206.735 108.612 206.676 108.716C206.618 108.821 206.533 108.908 206.43 108.967C206.206 109.124 205.941 109.211 205.669 109.217C205.389 109.226 205.113 109.15 204.877 109C204.759 108.945 204.66 108.856 204.593 108.744C204.526 108.633 204.493 108.504 204.499 108.373Z" fill="#FF6C37"/>
<path d="M226.552 108.248C226.557 108.173 226.574 108.099 226.605 108.03L232.103 90.2239C232.261 89.7025 232.713 89.4388 233.473 89.4388C234.234 89.4388 234.686 89.7025 234.843 90.2239L240.354 108.116C240.347 108.148 240.347 108.182 240.354 108.215C240.36 108.241 240.36 108.268 240.354 108.294C240.347 108.433 240.302 108.569 240.225 108.685C240.147 108.801 240.04 108.894 239.914 108.953C239.619 109.136 239.278 109.228 238.931 109.217C238.759 109.24 238.584 109.203 238.437 109.11C238.29 109.017 238.179 108.876 238.124 108.71L236.946 104.753H229.906L228.729 108.706C228.677 108.877 228.566 109.024 228.415 109.119C228.265 109.215 228.086 109.253 227.91 109.227C227.588 109.227 227.272 109.133 227.001 108.957C226.867 108.894 226.753 108.794 226.673 108.669C226.594 108.543 226.551 108.397 226.552 108.248ZM230.451 102.834H236.462L233.453 92.7295L230.451 102.834Z" fill="#FF6C37"/>
<path d="M248.15 108.374V90.2113C248.15 89.6908 248.523 89.4263 249.277 89.4263C249.625 89.4186 249.964 89.5366 250.234 89.7589C250.553 90.073 250.811 90.4441 250.994 90.8533L257.689 104.043V90.1972C257.687 90.0793 257.717 89.963 257.775 89.8606C257.833 89.7582 257.917 89.6734 258.019 89.6151C258.263 89.4828 258.535 89.4136 258.812 89.4136C259.089 89.4136 259.361 89.4828 259.606 89.6151C259.708 89.6734 259.792 89.7582 259.851 89.8604C259.91 89.9627 259.941 90.079 259.94 90.1972V108.374C259.943 108.494 259.914 108.613 259.855 108.717C259.796 108.822 259.709 108.908 259.606 108.967C259.369 109.118 259.093 109.194 258.813 109.185C258.503 109.169 258.203 109.064 257.951 108.881C257.699 108.699 257.504 108.447 257.39 108.156L250.403 94.5639V108.374C250.407 108.493 250.378 108.612 250.32 108.716C250.261 108.821 250.176 108.907 250.073 108.967C249.832 109.11 249.559 109.186 249.279 109.186C249 109.186 248.726 109.11 248.486 108.967C248.381 108.909 248.295 108.822 248.236 108.718C248.176 108.613 248.147 108.494 248.15 108.374Z" fill="#FF6C37"/>
<path d="M99.1304 83.749C99.0876 83.77 99.0494 83.7992 99.0179 83.8351C98.9864 83.871 98.9623 83.9128 98.9469 83.958C98.9315 84.0033 98.9252 84.0512 98.9283 84.0989C98.9314 84.1467 98.9438 84.1933 98.9649 84.2362C99.0589 84.425 99.0961 84.6372 99.0722 84.8468C99.0482 85.0565 98.964 85.2547 98.8299 85.4171C98.7722 85.4917 98.7456 85.5859 98.7558 85.6799C98.7661 85.7738 98.8124 85.86 98.8848 85.9202C98.9573 85.9804 99.0502 86.01 99.144 86.0026C99.2378 85.9951 99.325 85.9513 99.3871 85.8803C99.6106 85.6094 99.7509 85.2789 99.7909 84.9293C99.8309 84.5797 99.7688 84.226 99.6123 83.9111C99.5693 83.8259 99.4947 83.7611 99.4045 83.7307C99.3143 83.7004 99.2159 83.7069 99.1304 83.749Z" fill="#FF6C37"/>
<path d="M85.2291 68.2583C68.1112 66.0538 52.453 78.2027 50.2574 95.401C48.0618 112.599 60.1534 128.322 77.2721 130.528C94.3907 132.734 110.05 120.585 112.244 103.392C114.438 86.1985 102.347 70.4662 85.2291 68.2583ZM91.6636 87.8409C91.0838 87.8491 90.5302 88.0843 90.1204 88.4962L78.5247 100.141L76.0526 97.6563C87.476 86.2093 89.5359 86.0995 91.6636 87.8409ZM78.9966 100.557L90.5592 88.9403C90.8617 88.6372 91.2715 88.467 91.6988 88.467C92.1261 88.467 92.5359 88.6372 92.8384 88.9403C92.9942 89.0969 93.1164 89.2839 93.1974 89.4898C93.2784 89.6957 93.3165 89.9161 93.3094 90.1373C93.3022 90.3586 93.25 90.5761 93.1559 90.7762C93.0618 90.9764 92.9278 91.1551 92.7622 91.3012L80.5266 102.096L78.9966 100.557ZM79.8568 102.37L76.9923 102.99C76.9583 102.998 76.9229 102.994 76.8914 102.979C76.8598 102.965 76.8338 102.94 76.8172 102.91C76.8006 102.879 76.7943 102.844 76.7993 102.809C76.8043 102.775 76.8203 102.743 76.8449 102.718L78.5239 101.031L79.8568 102.37ZM72.5554 101.17L75.6088 98.1029L77.8972 100.401L72.7426 101.516C72.6995 101.525 72.6546 101.52 72.6146 101.501C72.5746 101.483 72.5417 101.452 72.5207 101.413C72.4996 101.374 72.4917 101.329 72.4979 101.286C72.5042 101.242 72.5244 101.201 72.5554 101.17ZM63.0627 117.023C63.0255 117.018 62.9903 117.004 62.9611 116.98C62.932 116.956 62.9101 116.925 62.8979 116.89C62.8857 116.854 62.8837 116.816 62.8922 116.779C62.9007 116.742 62.9193 116.709 62.946 116.683L65.409 114.208L68.5906 117.404L63.0627 117.023ZM69.3788 113.733C69.2614 113.794 69.1677 113.892 69.1122 114.013C69.0568 114.133 69.0428 114.269 69.0725 114.398L69.6007 116.664C69.6141 116.733 69.6056 116.805 69.5761 116.868C69.5467 116.932 69.4979 116.985 69.4367 117.019C69.3756 117.053 69.3052 117.067 69.2358 117.059C69.1664 117.05 69.1013 117.02 69.0501 116.972L65.8536 113.761L75.6469 103.923L80.3875 102.9L82.6626 105.186C79.3915 108.061 74.9224 110.937 69.3788 113.73V113.733ZM83.1221 104.766L80.9372 102.572L93.1745 91.7752C93.2881 91.6751 93.3913 91.5636 93.4825 91.4426C93.0959 94.9669 88.198 99.9349 83.1253 104.763L83.1221 104.766ZM92.643 87.8617C91.785 86.9921 91.2931 85.8242 91.2691 84.6001C91.2451 83.3761 91.691 82.1897 92.5142 81.2868C93.3375 80.384 94.475 79.8339 95.6911 79.7507C96.9071 79.6675 98.1085 80.0574 99.0461 80.8397L94.8461 85.0592C94.8169 85.0882 94.7938 85.1227 94.778 85.1608C94.7622 85.1988 94.754 85.2396 94.754 85.2808C94.754 85.322 94.7622 85.3629 94.778 85.4009C94.7938 85.4389 94.8169 85.4734 94.8461 85.5024L98.0931 88.7648C97.2055 89.2049 96.2028 89.3542 95.2263 89.1918C94.2498 89.0293 93.3486 88.5632 92.6496 87.8592L92.643 87.8617ZM99.3557 87.8617C99.1407 88.0767 98.9053 88.27 98.6528 88.4389L95.5067 85.2787L99.4997 81.2688C100.325 82.1746 100.771 83.3656 100.744 84.5933C100.717 85.8212 100.219 86.9911 99.354 87.8592L99.3557 87.8617Z" fill="#FF6C37"/>
<path d="M348.579 483.528C348.523 480.687 347.863 477.89 346.642 475.324C345.523 472.918 343.832 470.823 341.717 469.222C339.775 467.733 337.436 466.851 334.994 466.69C332.586 466.561 330.194 467.161 328.132 468.411C326.767 464.104 324.239 460.257 320.827 457.295C317.728 454.604 313.81 453.042 309.71 452.864C305.637 452.793 301.664 454.136 298.468 456.662C294.983 459.42 292.35 463.107 290.871 467.297C288.632 465.386 285.844 464.233 282.908 464.006C280.01 463.826 277.133 464.599 274.716 466.208C272.103 467.968 270.022 470.412 268.702 473.273C267.258 476.352 266.552 479.724 266.639 483.123L348.579 483.528Z" fill="#FFDE83"/>
<path d="M49 540.5L61 542L80.5 560.5L107 570.5L118 559.5H154V549H173.5V530.5H186L198 515V494.5L191.5 482H163.5C154.3 469.6 136.333 475.5 128.5 480L102 500L73 473.5L70.5 492.5C66.8333 491 59 488.2 57 489C55 489.8 53.8333 493 53.5 494.5L47 515L45 535.5L49 540.5Z" fill="white"/>
<path d="M249.04 446.027C249.04 446.027 277.147 432.176 294.618 461.499C294.618 461.499 304.608 479.641 291.592 496.024L303.481 497.822C303.481 497.822 307.279 498.202 305.734 506.507L305.38 518.51L277.526 523.004L243.57 480.502L249.04 446.027Z" fill="white"/>
<g style="mix-blend-mode:multiply">
<path d="M148.945 608.996H62.5609C59.3794 608.996 56.8003 611.575 56.8003 614.757V615.288C56.8003 618.47 59.3794 621.049 62.5609 621.049H148.945C152.126 621.049 154.706 618.47 154.706 615.288V614.757C154.706 611.575 152.126 608.996 148.945 608.996Z" fill="#E5E5E5"/>
</g>
<g style="mix-blend-mode:multiply">
<path d="M322.675 610.996H239.153C236.076 610.996 233.582 613.49 233.582 616.567V617.073C233.582 620.15 236.076 622.644 239.153 622.644H322.675C325.752 622.644 328.246 620.15 328.246 617.073V616.567C328.246 613.49 325.752 610.996 322.675 610.996Z" fill="#E5E5E5"/>
</g>
<path opacity="0.7" d="M148.185 480.819L129.409 491.555H179.976L193.839 480.819" fill="url(#paint0_linear_1615_20217)"/>
<path d="M74.7274 497.164L73.1827 495.898C68.8285 492.049 65.5079 487.17 63.5239 481.708C61.5399 476.246 60.9558 470.373 61.8249 464.627C62.694 458.881 64.9886 453.444 68.4993 448.813C72.01 444.182 76.6249 440.504 81.9226 438.115C87.2203 435.726 93.0321 434.702 98.8273 435.136C104.622 435.571 110.217 437.45 115.099 440.603C119.981 443.755 123.995 448.081 126.776 453.184C129.557 458.287 131.015 464.005 131.017 469.817C131.011 471.606 130.837 473.39 130.498 475.147C127.611 491.011 113.811 502.557 97.7192 503.836C97.2887 503.836 95.8834 503.583 95.4403 503.608" fill="white"/>
<path d="M74.7274 497.164L73.1827 495.898C68.8286 492.049 65.5079 487.17 63.5239 481.708C61.5399 476.246 60.9558 470.373 61.8249 464.627C62.694 458.881 64.9886 453.444 68.4993 448.813C72.01 444.182 76.6249 440.504 81.9226 438.115C87.2203 435.726 93.0321 434.702 98.8273 435.136C104.622 435.571 110.217 437.45 115.099 440.603C119.981 443.755 123.995 448.081 126.776 453.184C129.557 458.287 131.015 464.005 131.017 469.817C131.011 471.606 130.837 473.39 130.498 475.147C127.611 491.011 113.811 502.557 97.7192 503.836C97.2887 503.836 95.8834 503.583 95.4403 503.608" stroke="#3A3836" stroke-width="1.4" stroke-linecap="round" stroke-linejoin="round"/>
<path d="M73.6892 436.721C76.4092 436.721 78.6142 434.516 78.6142 431.796C78.6142 429.076 76.4092 426.871 73.6892 426.871C70.9692 426.871 68.7642 429.076 68.7642 431.796C68.7642 434.516 70.9692 436.721 73.6892 436.721Z" fill="#FF8853"/>
<path d="M73.6892 436.721C76.4092 436.721 78.6142 434.516 78.6142 431.796C78.6142 429.076 76.4092 426.871 73.6892 426.871C70.9692 426.871 68.7642 429.076 68.7642 431.796C68.7642 434.516 70.9692 436.721 73.6892 436.721Z" stroke="#3A3836" stroke-width="1.4" stroke-linecap="round" stroke-linejoin="round"/>
<path d="M76.4365 435.911L78.7408 439.722" stroke="#3A3836" stroke-width="1.4" stroke-linecap="round" stroke-linejoin="round"/>
<path opacity="0.7" d="M108.696 540.755L128.94 547.971L136.511 547.085L141.259 539.349L140.905 531.601L132.283 525.967L113.975 517.877L108.708 514.42L108.493 507.875H154.148V559.543H108.493V541.362" fill="url(#paint1_linear_1615_20217)"/>
<path d="M108.493 514.522V507.875H154.148V559.543H108.493V541.362" stroke="#3A3836" stroke-width="1.4" stroke-linecap="round" stroke-linejoin="round"/>
<path d="M184.331 531.057L173.912 531.069" stroke="#3A3836" stroke-width="1.4" stroke-linecap="round" stroke-linejoin="round"/>
<path d="M148.185 480.819H193.839V487.048" stroke="#3A3836" stroke-width="1.4" stroke-linecap="round" stroke-linejoin="round"/>
<path d="M148.185 497.113V491.505" stroke="#3A3836" stroke-width="1.4" stroke-linecap="round" stroke-linejoin="round"/>
<path d="M111.811 499.493C103.822 491.618 104.063 478.616 110.988 469.437C115.381 463.613 122.535 461.359 129.979 462.385" stroke="#3A3836" stroke-width="1.4" stroke-linecap="round" stroke-linejoin="round"/>
<path d="M185.5 539V519.5L188 510.5L195.5 490.5C213.1 504.1 228.833 499.167 234.5 495C230.1 486.6 229.333 477.167 229.5 473.5C231.5 456.7 243.333 448.167 249 446L276 471.5L292 496C291.167 496.5 291.2 497.4 298 497C304.8 496.6 306.5 500.167 306.5 502L305 518L318 549C320.333 552.5 323.1 560.5 315.5 564.5C307.9 568.5 303.333 564.833 302 562.5L293 542L258.5 573.5L235.5 522.5C219.5 526.5 203.167 519.167 197 515V526L185.5 539Z" fill="white"/>
<path d="M87.0717 473.843C89.9456 473.843 92.2753 471.513 92.2753 468.639C92.2753 465.765 89.9456 463.436 87.0717 463.436C84.1979 463.436 81.8682 465.765 81.8682 468.639C81.8682 471.513 84.1979 473.843 87.0717 473.843Z" stroke="#3A3836" stroke-width="1.4" stroke-linecap="round" stroke-linejoin="round"/>
<path d="M148.185 480.819L129.409 491.555H179.976L193.839 480.819" stroke="#3A3836" stroke-width="1.4" stroke-linecap="round" stroke-linejoin="round"/>
<path d="M96.6812 566.355L93.4274 567.861C90.2476 569.317 87.556 571.66 85.6761 574.609C83.7962 577.558 82.808 580.988 82.8304 584.485L82.9443 603.944C82.9577 605.507 82.6613 607.056 82.0723 608.504C81.4832 609.951 80.6132 611.267 79.5124 612.376C78.4117 613.485 77.1021 614.365 75.6593 614.965C74.2165 615.564 72.6691 615.872 71.1066 615.871H69.562C66.4776 615.862 63.5181 614.651 61.3124 612.495C59.1067 610.339 57.8286 607.407 57.7495 604.324L57.4457 587.865C57.2304 582.143 57.1798 571.014 57.3317 565.291C57.8381 545.642 59.2561 523.118 64.9281 505.621L69.2581 491.694" fill="white"/>
<path d="M96.6812 566.355L93.4274 567.861C90.2476 569.317 87.556 571.66 85.6761 574.609C83.7962 577.558 82.808 580.988 82.8304 584.485L82.9443 603.944C82.9577 605.507 82.6613 607.056 82.0723 608.504C81.4832 609.951 80.6132 611.267 79.5124 612.376C78.4117 613.485 77.1021 614.365 75.6593 614.965C74.2165 615.564 72.6691 615.872 71.1066 615.871H69.562C66.4776 615.862 63.5181 614.651 61.3124 612.495C59.1067 610.339 57.8286 607.407 57.7495 604.324L57.4457 587.865C57.2304 582.143 57.1798 571.014 57.3317 565.291C57.8381 545.642 59.2561 523.118 64.9281 505.621L69.2581 491.694" stroke="#3A3836" stroke-width="1.4" stroke-linecap="round" stroke-linejoin="round"/>
<path d="M117.824 559.594C117.824 559.594 120.015 581.788 124.332 599.348C124.806 601.281 124.834 603.296 124.415 605.242C123.996 607.187 123.14 609.012 121.911 610.578C120.683 612.144 119.115 613.41 117.326 614.281C115.537 615.152 113.573 615.604 111.582 615.605C108.423 615.606 105.37 614.467 102.983 612.396C100.597 610.326 99.0378 607.464 98.5926 604.337L93.427 567.861" fill="white"/>
<path d="M117.824 559.594C117.824 559.594 120.015 581.788 124.332 599.348C124.806 601.281 124.834 603.296 124.415 605.242C123.996 607.187 123.14 609.012 121.911 610.578C120.683 612.144 119.115 613.41 117.326 614.281C115.537 615.152 113.573 615.604 111.582 615.605V615.605C108.423 615.606 105.37 614.467 102.983 612.396C100.597 610.326 99.0378 607.464 98.5926 604.337L93.427 567.861" stroke="#3A3836" stroke-width="1.4" stroke-linecap="round" stroke-linejoin="round"/>
<path d="M96.6812 566.355L93.4274 567.861C90.2476 569.317 87.556 571.66 85.6761 574.609C83.7962 577.558 82.808 580.988 82.8304 584.485L82.9443 603.944C82.9577 605.507 82.6613 607.056 82.0723 608.504C81.4832 609.951 80.6132 611.267 79.5124 612.376C78.4117 613.485 77.1021 614.365 75.6593 614.965C74.2165 615.564 72.6691 615.872 71.1066 615.871H69.562C66.4776 615.862 63.5181 614.651 61.3124 612.495C59.1067 610.339 57.8286 607.407 57.7495 604.324L57.4457 587.865C57.2304 582.143 57.1798 571.014 57.3317 565.291C57.8381 545.642 59.2561 523.118 64.9281 505.621L69.2581 491.694" stroke="#3A3836" stroke-width="1.4" stroke-linecap="round" stroke-linejoin="round"/>
<path d="M89.8572 531.386C89.8572 531.386 71.6764 551.137 59.4714 535.184" stroke="#3A3836" stroke-width="1.4" stroke-linecap="round" stroke-linejoin="round"/>
<path d="M84.3248 525.207C84.3248 525.207 69.7903 539.678 60.5986 526.347" stroke="#3A3836" stroke-width="1.4" stroke-linecap="round" stroke-linejoin="round"/>
<path d="M57.8381 541.894L51.7863 541.274C49.9151 541.073 48.1851 540.185 46.9313 538.781C45.6776 537.378 44.9894 535.559 45.0001 533.677C45.1267 519.143 50.4696 502.291 54.1285 492.505C54.406 491.768 54.8274 491.093 55.3681 490.521C55.9088 489.948 56.558 489.489 57.2779 489.169C57.9978 488.85 58.7741 488.677 59.5614 488.661C60.3488 488.644 61.1316 488.785 61.8642 489.074L68.5997 491.745" stroke="#3A3836" stroke-width="1.4" stroke-linecap="round" stroke-linejoin="round"/>
<path d="M128.713 507.33V497.822H173.05V548.971H154.325" stroke="#3A3836" stroke-width="1.4" stroke-linecap="round" stroke-linejoin="round"/>
<path d="M129.448 479.743C129.448 479.743 147.173 467.576 163.796 480.844" stroke="#3A3836" stroke-width="1.4" stroke-linecap="round" stroke-linejoin="round"/>
<path d="M117.824 559.594C117.824 559.594 120.015 581.788 124.332 599.348C124.806 601.281 124.834 603.296 124.415 605.242C123.996 607.187 123.14 609.012 121.911 610.578C120.683 612.144 119.115 613.41 117.326 614.281C115.537 615.152 113.573 615.604 111.582 615.605V615.605C108.423 615.606 105.37 614.467 102.983 612.396C100.597 610.326 99.0378 607.464 98.5926 604.337L93.427 567.861" stroke="#3A3836" stroke-width="1.4" stroke-linecap="round" stroke-linejoin="round"/>
<path d="M95.466 503.633C105.859 514.398 118.936 522.195 133.347 526.22C136.036 526.922 138.357 528.622 139.838 530.973C141.32 533.325 141.851 536.152 141.323 538.881C140.133 544.844 134.106 549.301 128.333 547.376C112.419 542.135 91.845 536.209 84.717 524.815" stroke="#3A3836" stroke-width="1.4" stroke-linecap="round" stroke-linejoin="round"/>
<path d="M64.8899 505.659C64.8899 505.659 67.9411 495.531 81.3488 498.164" stroke="#3A3836" stroke-width="1.4" stroke-linecap="round" stroke-linejoin="round"/>
<path d="M137.651 503.57H167.05" stroke="#3A3836" stroke-width="1.4" stroke-linecap="round" stroke-linejoin="round"/>
<path d="M154.237 510.432H167.049" stroke="#3A3836" stroke-width="1.4" stroke-linecap="round" stroke-linejoin="round"/>
<path d="M155.515 517.282H167.049" stroke="#3A3836" stroke-width="1.4" stroke-linecap="round" stroke-linejoin="round"/>
<path d="M155.617 524.144H167.05" stroke="#3A3836" stroke-width="1.4" stroke-linecap="round" stroke-linejoin="round"/>
<path d="M296.417 465.93C297.382 468.877 297.961 471.937 298.139 475.033C298.589 483.729 295.719 492.272 290.109 498.932C284.5 505.593 276.571 509.875 267.924 510.911C259.278 511.948 250.561 509.662 243.537 504.515C236.512 499.369 231.705 491.747 230.086 483.191C228.468 474.634 230.159 465.783 234.819 458.427C239.479 451.07 246.759 445.758 255.186 443.565C263.613 441.372 272.559 442.462 280.213 446.614C287.868 450.766 293.659 457.67 296.417 465.93V465.93Z" stroke="#3A3836" stroke-width="1.4" stroke-linecap="round" stroke-linejoin="round"/>
<path d="M277.362 606.046L268.829 577.61L277.362 606.046Z" fill="white"/>
<path d="M277.362 606.046L268.829 577.61" stroke="#3A3836" stroke-width="1.4" stroke-linecap="round" stroke-linejoin="round"/>
<path d="M292.201 542.071L303.785 603.083L292.201 542.071Z" fill="white"/>
<path d="M292.201 542.071L303.785 603.083" stroke="#3A3836" stroke-width="1.4" stroke-linecap="round" stroke-linejoin="round"/>
<path d="M258.802 607.11L261.612 573.166L258.802 607.11Z" fill="white"/>
<path d="M258.802 607.11L261.612 573.166" stroke="#3A3836" stroke-width="1.4" stroke-linecap="round" stroke-linejoin="round"/>
<path d="M233.961 551.833L232.695 605.109L233.961 551.833Z" fill="white"/>
<path d="M233.961 551.833L232.695 605.109" stroke="#3A3836" stroke-width="1.4" stroke-linecap="round" stroke-linejoin="round"/>
<path d="M289.213 536.21C289.213 536.21 285.655 516.408 294.631 504.431" stroke="#3A3836" stroke-width="1.4" stroke-linecap="round" stroke-linejoin="round"/>
<path d="M292.201 542.071C292.201 542.071 278.616 523.08 287.238 501.95" stroke="#3A3836" stroke-width="1.4" stroke-linecap="round" stroke-linejoin="round"/>
<path d="M305.368 519.155L305.9 501.772C305.927 501.23 305.847 500.688 305.665 500.177C305.482 499.665 305.2 499.195 304.836 498.793C304.471 498.391 304.031 498.065 303.54 497.833C303.049 497.601 302.517 497.468 301.975 497.442L291.606 496.797" stroke="#3A3836" stroke-width="1.4" stroke-linecap="round" stroke-linejoin="round"/>
<path d="M233.303 462.562C237.671 462.562 239.811 462.347 247.559 462.562C261.157 462.777 267.006 467.842 269.411 471.273C270.576 472.919 270.867 476.337 270.677 478.337C270.095 485.212 264.841 501.671 238.861 499.557" stroke="#3A3836" stroke-width="1.4" stroke-linecap="round" stroke-linejoin="round"/>
<path d="M236.051 521.612C236.051 521.612 233.784 543.401 233.974 551.833L232.708 605.109C232.667 606.881 232.985 608.642 233.644 610.287C234.303 611.932 235.29 613.426 236.543 614.678C237.797 615.93 239.292 616.915 240.937 617.573C242.583 618.231 244.344 618.547 246.116 618.504C249.229 618.43 252.214 617.248 254.534 615.171C256.855 613.095 258.359 610.259 258.777 607.173L261.587 573.229" fill="white"/>
<path d="M236.051 521.612C236.051 521.612 233.784 543.401 233.974 551.833L232.708 605.109C232.667 606.881 232.985 608.642 233.644 610.287C234.303 611.932 235.29 613.426 236.543 614.678C237.797 615.93 239.292 616.915 240.937 617.573C242.583 618.231 244.344 618.547 246.116 618.504C249.229 618.43 252.214 617.248 254.534 615.171C256.855 613.095 258.359 610.259 258.777 607.173L261.587 573.229" stroke="#3A3836" stroke-width="1.4" stroke-linecap="round" stroke-linejoin="round"/>
<path d="M241.431 502.633C236.848 504.95 236.05 521.991 236.05 521.991C229.897 506.039 234.784 496.1 234.784 496.1" stroke="#3A3836" stroke-width="1.4" stroke-linecap="round" stroke-linejoin="round"/>
<path d="M279.831 441.862L278.565 445.407" stroke="#3A3836" stroke-width="1.4" stroke-linecap="round" stroke-linejoin="round"/>
<path d="M292.2 542.071L303.785 603.083C304.171 604.873 304.171 606.725 303.785 608.515C303.092 611.373 301.476 613.924 299.187 615.771C296.899 617.618 294.064 618.659 291.124 618.732C283.882 618.909 279.983 613.971 277.438 606.071L268.905 577.635L264.397 574.362L259.89 571.09" fill="white"/>
<path d="M292.2 542.071L303.785 603.083C304.171 604.873 304.171 606.725 303.785 608.515C303.092 611.373 301.476 613.924 299.187 615.771C296.899 617.618 294.064 618.659 291.124 618.732C283.882 618.909 279.983 613.971 277.438 606.071L268.905 577.635L264.397 574.362L259.89 571.09" stroke="#3A3836" stroke-width="1.4" stroke-linecap="round" stroke-linejoin="round"/>
<g opacity="0.7">
<path opacity="0.7" d="M282.123 441.267C284.794 441.267 286.959 439.101 286.959 436.43C286.959 433.759 284.794 431.594 282.123 431.594C279.452 431.594 277.287 433.759 277.287 436.43C277.287 439.101 279.452 441.267 282.123 441.267Z" fill="white"/>
</g>
<path d="M281.857 441.988C284.528 441.988 286.694 439.823 286.694 437.152C286.694 434.481 284.528 432.316 281.857 432.316C279.186 432.316 277.021 434.481 277.021 437.152C277.021 439.823 279.186 441.988 281.857 441.988Z" fill="#FF8853"/>
<path d="M281.857 441.988C284.528 441.988 286.694 439.823 286.694 437.152C286.694 434.481 284.528 432.316 281.857 432.316C279.186 432.316 277.021 434.481 277.021 437.152C277.021 439.823 279.186 441.988 281.857 441.988Z" stroke="#3A3836" stroke-width="1.4" stroke-linecap="round" stroke-linejoin="round"/>
<path d="M272.906 518.522H265.702C265.282 518.522 264.942 518.863 264.942 519.282V526.739C264.942 527.159 265.282 527.499 265.702 527.499H272.906C273.326 527.499 273.666 527.159 273.666 526.739V519.282C273.666 518.863 273.326 518.522 272.906 518.522Z" stroke="#3A3836" stroke-width="1.4" stroke-linecap="round" stroke-linejoin="round"/>
<path d="M198.208 515.281C207.526 520.27 217.047 525.347 235.696 523.118" stroke="#3A3836" stroke-width="1.4" stroke-linecap="round" stroke-linejoin="round"/>
<path d="M235 494.86C235 494.86 223.162 506.166 198.208 492.733" stroke="#3A3836" stroke-width="1.4" stroke-linecap="round" stroke-linejoin="round"/>
<path d="M284.3 485.706C287.181 485.706 289.516 483.37 289.516 480.49C289.516 477.609 287.181 475.273 284.3 475.273C281.419 475.273 279.084 477.609 279.084 480.49C279.084 483.37 281.419 485.706 284.3 485.706Z" stroke="#3A3836" stroke-width="1.4" stroke-linecap="round" stroke-linejoin="round"/>
<path opacity="0.7" d="M197.321 526.207L185.192 541.869V495.341L197.207 484.744L197.321 526.207Z" fill="url(#paint2_linear_1615_20217)"/>
<path d="M197.321 526.207L185.192 541.869V495.341L197.207 484.744L197.321 526.207Z" stroke="#3A3836" stroke-width="1.4" stroke-linecap="round" stroke-linejoin="round"/>
<path d="M290.77 499.747C290.77 499.747 307.026 512.407 319.523 553.2C320.268 555.62 320.095 558.23 319.037 560.531C317.979 562.832 316.11 564.662 313.787 565.671V565.671C312.489 566.231 311.089 566.516 309.675 566.51C308.261 566.503 306.864 566.205 305.57 565.633C304.277 565.061 303.116 564.229 302.16 563.187C301.203 562.146 300.472 560.918 300.012 559.581L292.201 542.071" stroke="#3A3836" stroke-width="1.4" stroke-linecap="round" stroke-linejoin="round"/>
<path d="M125.788 429.657C125.841 426.817 126.497 424.02 127.713 421.453C128.842 419.043 130.546 416.947 132.676 415.35C134.625 413.875 136.96 412.995 139.398 412.818C141.807 412.69 144.198 413.29 146.26 414.54C147.629 410.234 150.156 406.388 153.566 403.424C156.662 400.731 160.582 399.173 164.682 399.005C168.747 398.906 172.722 400.221 175.925 402.728C179.412 405.487 182.046 409.179 183.521 413.375C185.759 411.459 188.547 410.302 191.485 410.071C194.382 409.891 197.259 410.665 199.676 412.274C202.29 414.034 204.37 416.477 205.69 419.338C207.133 422.417 207.839 425.789 207.754 429.188L125.788 429.657Z" fill="#FFDE83"/>
<path d="M243.102 406.273L248.242 407.944L243.102 409.602L241.431 414.743L239.76 409.602L234.619 407.919L239.76 406.247L241.431 401.107L243.102 406.273Z" fill="white" stroke="#3A3836" stroke-width="1.4" stroke-linecap="round" stroke-linejoin="round"/>
<path d="M357.441 528.752L362.582 530.424L357.441 532.107L355.77 537.248L354.099 532.107L348.959 530.424L354.099 528.752L355.77 523.612L357.441 528.752Z" fill="white" stroke="#3A3836" stroke-width="1.4" stroke-linecap="round" stroke-linejoin="round"/>
<path d="M209.729 455.333L212.932 456.371L209.729 457.422L208.64 460.625L207.589 457.422L204.398 456.371L207.589 455.333L208.64 452.13L209.729 455.333Z" fill="#3A3836"/>
<path d="M344.578 431.277L347.781 432.316L344.578 433.354L343.54 436.557L342.489 433.354L339.286 432.316L342.489 431.277L343.54 428.074L344.578 431.277Z" fill="#3A3836"/>
</g>
<defs>
<linearGradient id="paint0_linear_1615_20217" x1="129.409" y1="486.187" x2="193.839" y2="486.187" gradientUnits="userSpaceOnUse">
<stop stop-color="#FF7002"/>
<stop offset="0.3" stop-color="#FE7304"/>
<stop offset="0.5" stop-color="#FC7C0A"/>
<stop offset="0.68" stop-color="#F88B15"/>
<stop offset="0.84" stop-color="#F3A125"/>
<stop offset="0.98" stop-color="#ECBD39"/>
<stop offset="1" stop-color="#EBC03B"/>
</linearGradient>
<linearGradient id="paint1_linear_1615_20217" x1="2422.27" y1="6004.36" x2="4068.57" y2="6004.36" gradientUnits="userSpaceOnUse">
<stop stop-color="#FF7002"/>
<stop offset="0.68" stop-color="#F88B15"/>
<stop offset="0.84" stop-color="#F3A125"/>
<stop offset="0.98" stop-color="#ECBD39"/>
<stop offset="1" stop-color="#EBC03B"/>
</linearGradient>
<linearGradient id="paint2_linear_1615_20217" x1="1534.66" y1="5640.86" x2="1650.86" y2="5640.86" gradientUnits="userSpaceOnUse">
<stop stop-color="#FF7002"/>
<stop offset="1" stop-color="#ECBD39"/>
</linearGradient>
</defs>
</svg>
