<svg viewBox="0 0 32 32" version="1.1" xmlns="http://www.w3.org/2000/svg" xmlns:xlink="http://www.w3.org/1999/xlink">
    <g stroke="none" stroke-width="1" fill="none" fill-rule="evenodd">
        <g id="Logo">
            <path d="M18.0368,0.1322 C9.2718,-0.9938 1.2568,5.1992 0.1318,13.9632 C-0.9922,22.7272 5.1998,30.7422 13.9638,31.8662 C22.7268,32.9922 30.7438,26.8012 31.8678,18.0362 C32.9938,9.2732 26.7998,1.2552 18.0368,0.1322" id="Fill-1" fill="#F26B3A"></path>
            <path d="M6.2283,27.1957 C5.9713,27.1957 5.7413,27.0427 5.6433,26.8047 C5.5443,26.5677 5.5993,26.2977 5.7803,26.1157 L7.3383,24.5657 C7.4203,24.4847 7.5233,24.4367 7.6293,24.4247 C7.6483,24.3417 7.6883,24.2627 7.7503,24.1967 L12.7073,18.8507 C12.7613,18.7917 12.8303,18.7467 12.9053,18.7197 C12.9033,18.7167 12.9013,18.7127 12.9003,18.7097 C12.8003,18.4707 12.8523,18.1987 13.0323,18.0137 L13.6253,17.4017 L11.0043,17.9667 C10.9703,17.9727 10.9033,17.9807 10.8683,17.9807 C10.6213,17.9807 10.3933,17.8347 10.2893,17.6077 C10.1843,17.3797 10.2203,17.1187 10.3833,16.9257 L12.0043,15.0197 C12.0613,14.9527 12.1353,14.9027 12.2163,14.8737 C12.2383,14.7867 12.2833,14.7057 12.3483,14.6407 C16.8923,10.0957 18.7053,8.7107 20.1073,8.7107 C20.1863,8.7107 20.2643,8.7157 20.3393,8.7247 C20.2333,8.3527 20.1973,7.9547 20.2423,7.5477 C20.4153,5.9827 21.7313,4.8037 23.3043,4.8037 C23.4173,4.8037 23.5313,4.8097 23.6463,4.8227 C24.2183,4.8857 24.7583,5.1057 25.2073,5.4587 C25.3223,5.5497 25.3913,5.6857 25.3973,5.8327 C25.3973,5.8357 25.3973,5.8387 25.3973,5.8417 C25.4663,5.8647 25.5303,5.9037 25.5853,5.9577 C26.1013,6.4667 26.3993,7.1727 26.4053,7.8947 L26.4023,8.0377 L26.3893,8.2137 L26.3663,8.3727 L26.3373,8.5187 L26.2973,8.6747 L26.2493,8.8217 L26.1903,8.9757 L26.1193,9.1337 L26.0483,9.2657 L25.5533,9.1177 L25.9783,9.3807 C25.9743,9.3887 25.9293,9.4577 25.9233,9.4657 C25.9193,9.4707 25.8433,9.5767 25.8383,9.5827 C25.7223,9.7317 25.6073,9.8527 25.4833,9.9637 L25.3753,10.0537 C25.2703,10.1367 25.1733,10.2047 25.0723,10.2647 C24.9943,10.3117 24.9003,10.3397 24.8063,10.3437 C24.8053,10.3517 24.8043,10.3587 24.8023,10.3657 C24.7693,10.5257 24.6593,10.6597 24.5083,10.7237 C24.1253,10.8867 23.7203,10.9697 23.3043,10.9697 C23.1933,10.9697 23.0803,10.9647 22.9673,10.9517 C22.7493,10.9267 22.5383,10.8807 22.3373,10.8137 C22.3533,11.1037 22.2953,11.4457 22.1053,11.8357 C22.1103,11.8367 22.1143,11.8387 22.1183,11.8407 C22.3363,11.9397 22.4583,12.1727 22.4013,12.4047 C22.3003,12.8207 22.1843,13.1147 22.1843,13.1147 C22.1683,13.1797 21.3743,15.9287 17.1283,19.4687 C17.0773,19.5107 17.0203,19.5427 16.9583,19.5617 C16.9333,19.6617 16.8763,19.7527 16.7953,19.8197 C16.4643,20.0957 16.1143,20.4017 15.7463,20.7227 C14.3323,21.9587 12.5863,23.4847 10.4063,24.6597 L10.7693,26.2117 C10.8133,26.4017 10.7703,26.5967 10.6493,26.7487 C10.5303,26.8987 10.3443,26.9887 10.1513,26.9887 C10.0853,26.9887 9.9973,26.9667 9.9143,26.9317 C9.8263,27.0857 9.6633,27.1817 9.4823,27.1827 C9.4823,27.1827 6.2283,27.1957 6.2283,27.1957" id="Fill-3" fill="#FFFFFF"></path>
            <path d="M23.3054,4.3031 C21.4774,4.3031 19.9464,5.6741 19.7444,7.4911 C19.7174,7.7431 19.7164,7.9921 19.7404,8.2361 C18.2334,8.4391 16.3474,9.9341 11.9944,14.2871 C11.9264,14.3561 11.8684,14.4331 11.8234,14.5171 C11.7494,14.5671 11.6824,14.6271 11.6234,14.6961 L10.0024,16.6031 C9.7154,16.9401 9.6504,17.4171 9.8354,17.8191 C10.0214,18.2201 10.4274,18.4811 10.8684,18.4811 C10.9394,18.4811 11.0414,18.4691 11.1104,18.4541 L12.3844,18.1801 C12.3584,18.2841 12.3474,18.3921 12.3504,18.4991 C12.3474,18.5031 12.3434,18.5071 12.3404,18.5101 L7.3834,23.8561 C7.3374,23.9071 7.2974,23.9591 7.2634,24.0161 C7.1624,24.0631 7.0684,24.1281 6.9854,24.2111 L5.4284,25.7601 C5.1024,26.0851 5.0054,26.5711 5.1804,26.9951 C5.3564,27.4201 5.7674,27.6961 6.2274,27.6961 L9.4844,27.6831 C9.7024,27.6821 9.9084,27.6111 10.0754,27.4871 C10.1004,27.4891 10.1264,27.4891 10.1514,27.4891 C10.5004,27.4891 10.8244,27.3321 11.0414,27.0591 C11.2574,26.7871 11.3354,26.4371 11.2564,26.0981 L10.9784,24.9141 C13.0504,23.7431 14.7144,22.2881 16.0754,21.1001 C16.4404,20.7821 16.7874,20.4781 17.1164,20.2031 C17.2094,20.1251 17.2864,20.0321 17.3454,19.9281 C17.3814,19.9061 17.4154,19.8801 17.4484,19.8531 C21.5274,16.4521 22.5244,13.7011 22.6644,13.2561 C22.7034,13.1541 22.8004,12.8801 22.8874,12.5231 C22.9604,12.2211 22.8884,11.9121 22.7104,11.6791 C22.7384,11.5961 22.7614,11.5141 22.7804,11.4311 C22.8234,11.4381 22.8674,11.4431 22.9104,11.4481 C23.0444,11.4621 23.1764,11.4701 23.3064,11.4701 C23.7884,11.4701 24.2594,11.3731 24.7044,11.1851 C24.9014,11.1011 25.0634,10.9571 25.1704,10.7791 C25.2044,10.7641 25.2374,10.7471 25.2704,10.7291 C25.2804,10.7231 25.3204,10.6991 25.3294,10.6941 C25.4514,10.6201 25.5644,10.5411 25.6744,10.4551 C25.7294,10.4101 25.7644,10.3811 25.7994,10.3511 C25.9614,10.2061 26.0974,10.0631 26.2174,9.9081 L26.3044,9.7921 C26.3074,9.7871 26.3344,9.7491 26.3374,9.7451 L26.3984,9.6531 L26.4364,9.5911 L26.4844,9.5111 L26.5344,9.4181 C26.5364,9.4141 26.5584,9.3711 26.5604,9.3681 C26.5904,9.3081 26.6154,9.2561 26.6384,9.2021 C26.6714,9.1221 26.6884,9.0801 26.7034,9.0381 C26.7064,9.0311 26.7194,8.9941 26.7224,8.9871 L26.7614,8.8671 C26.7634,8.8611 26.7784,8.8121 26.7804,8.8041 L26.8104,8.6891 C26.8114,8.6851 26.8224,8.6401 26.8234,8.6361 L26.8504,8.5031 C26.8514,8.4981 26.8594,8.4571 26.8594,8.4531 C26.8694,8.3931 26.8784,8.3321 26.8854,8.2711 C26.8914,8.2131 26.8964,8.1531 26.9004,8.0931 C26.9044,8.0071 26.9054,7.9551 26.9054,7.9051 C26.8984,7.0361 26.5454,6.2011 25.9364,5.6021 C25.9054,5.5721 25.8734,5.5431 25.8404,5.5181 C25.7774,5.3411 25.6664,5.1841 25.5154,5.0661 C24.9924,4.6551 24.3654,4.3991 23.7014,4.3251 C23.5684,4.3111 23.4364,4.3031 23.3054,4.3031 M7.6904,24.9201 L9.4804,26.6831 L6.2284,26.6961 L6.2274,26.6961 C6.1094,26.6961 6.0504,26.5521 6.1344,26.4691 L7.6904,24.9201 M15.7494,18.7101 L16.4744,19.4361 C16.1404,19.7151 15.7884,20.0231 15.4174,20.3471 C13.9714,21.6111 12.1704,23.1831 9.9314,24.3451 C9.8724,24.3751 9.8414,24.4431 9.8564,24.5071 L10.2824,26.3251 C10.3034,26.4171 10.2304,26.4891 10.1514,26.4891 C10.1194,26.4891 10.0874,26.4771 10.0594,26.4501 L8.1174,24.5361 L13.0734,19.1911 L15.7494,18.7101 M14.3824,17.3401 L15.3204,18.2791 L13.5154,18.5991 C13.5074,18.6011 13.4984,18.6021 13.4894,18.6021 C13.3704,18.6021 13.3014,18.4531 13.3894,18.3631 L14.3824,17.3401 M12.3854,15.3441 L13.8784,16.8361 L10.8994,17.4771 C10.8884,17.4791 10.8784,17.4811 10.8684,17.4811 C10.7554,17.4811 10.6844,17.3441 10.7634,17.2511 L12.3854,15.3441 M21.9154,12.2861 C21.8234,12.6641 21.7184,12.9321 21.7184,12.9321 C21.7184,12.9321 20.9824,15.6051 16.8074,19.0841 C16.8054,19.0811 16.8044,19.0761 16.8004,19.0741 L16.1094,18.3891 C16.1094,18.3891 21.6754,12.6781 21.9154,12.2861 M21.5004,10.0901 C22.0764,10.6651 21.9614,11.5581 20.8964,12.6231 L15.6654,17.9331 L14.7044,16.9811 L21.5004,10.0901 M20.1074,9.2101 C20.4744,9.2101 20.7794,9.3511 21.0484,9.6201 C21.0524,9.6221 21.0554,9.6241 21.0584,9.6261 L14.2384,16.5061 L12.7014,14.9941 C16.7424,10.9531 18.8144,9.2101 20.1074,9.2101 M25.0514,8.8231 C25.1174,8.8231 25.1834,8.7981 25.2224,8.7521 C25.7184,8.1821 25.3504,7.4761 25.3354,7.4471 C25.3024,7.3851 25.2254,7.3481 25.1454,7.3481 C25.1194,7.3481 25.0934,7.3521 25.0674,7.3601 C24.9624,7.3931 24.9114,7.4851 24.9544,7.5651 C24.9574,7.5711 25.2544,8.1481 24.8804,8.5781 C24.8174,8.6511 24.8434,8.7481 24.9384,8.7961 C24.9724,8.8141 25.0124,8.8231 25.0514,8.8231 M25.2344,6.3141 C25.6604,6.7341 25.9004,7.3061 25.9054,7.8991 L25.9054,7.9091 C25.9054,7.9451 25.9044,7.9811 25.9024,8.0171 C25.9024,8.0241 25.9024,8.0311 25.9014,8.0371 C25.8994,8.0781 25.8964,8.1191 25.8914,8.1611 C25.8874,8.2031 25.8814,8.2441 25.8734,8.2861 C25.8714,8.2981 25.8694,8.3111 25.8674,8.3231 C25.8614,8.3521 25.8554,8.3811 25.8494,8.4091 C25.8464,8.4231 25.8434,8.4371 25.8394,8.4501 C25.8324,8.4781 25.8254,8.5051 25.8174,8.5321 C25.8144,8.5451 25.8094,8.5591 25.8054,8.5731 C25.7974,8.6001 25.7884,8.6261 25.7794,8.6541 C25.7744,8.6661 25.7704,8.6791 25.7654,8.6911 C25.7554,8.7201 25.7434,8.7491 25.7314,8.7781 C25.7274,8.7861 25.7234,8.7961 25.7204,8.8061 C25.7044,8.8421 25.6874,8.8791 25.6694,8.9141 C25.6624,8.9281 25.6554,8.9411 25.6484,8.9531 C25.6374,8.9761 25.6254,8.9971 25.6134,9.0191 C25.6034,9.0371 25.5924,9.0551 25.5814,9.0731 C25.5724,9.0881 25.5634,9.1031 25.5534,9.1171 C25.5404,9.1381 25.5274,9.1581 25.5134,9.1781 C25.5064,9.1891 25.4984,9.2001 25.4904,9.2111 C25.4744,9.2341 25.4594,9.2551 25.4424,9.2771 C25.4384,9.2821 25.4344,9.2871 25.4304,9.2921 C25.3464,9.4001 25.2524,9.4991 25.1514,9.5891 C25.1474,9.5931 25.1434,9.5961 25.1394,9.5991 C25.1164,9.6201 25.0914,9.6411 25.0664,9.6601 C25.0624,9.6641 25.0574,9.6671 25.0544,9.6711 C24.9774,9.7311 24.8984,9.7861 24.8154,9.8361 C24.8074,9.8401 24.8004,9.8451 24.7934,9.8501 C24.7864,9.8541 24.7794,9.8571 24.7724,9.8611 L23.1954,8.1941 L25.2344,6.3141 M23.3054,5.3031 C23.3994,5.3031 23.4944,5.3091 23.5914,5.3201 C24.0754,5.3731 24.5234,5.5581 24.8974,5.8521 L22.4644,8.0951 C22.4354,8.1211 22.4184,8.1581 22.4174,8.1971 C22.4154,8.2361 22.4304,8.2741 22.4564,8.3021 L24.3124,10.2641 C24.0014,10.3971 23.6604,10.4701 23.3064,10.4701 C23.2124,10.4701 23.1174,10.4641 23.0214,10.4541 C21.6064,10.2961 20.5824,9.0171 20.7394,7.6021 C20.8854,6.2821 22.0084,5.3031 23.3054,5.3031" id="Fill-5" fill="#F26B3A"></path>
        </g>
    </g>
</svg>